<svg width="100" height="100" viewBox="0 0 100 100" fill="none" xmlns="http://www.w3.org/2000/svg">
<path d="M73.0021 77.0042C72.4542 77.0042 71.9021 76.898 71.3729 76.6792C69.7792 76.0188 68.75 74.4792 68.75 72.7542V62.5H6.25002C5.10002 62.5 4.16669 61.5688 4.16669 60.4167V47.9167C4.16669 46.7646 5.10002 45.8334 6.25002 45.8334H68.75V35.5792C68.75 33.8542 69.7792 32.3146 71.3729 31.6542C72.9646 30.9938 74.7833 31.3542 76.0021 32.575L95.0792 48.3959C95.5583 48.7938 95.8334 49.3792 95.8334 50V54.1667C95.8334 55.3042 95.3917 56.3709 94.5875 57.1709L76.0021 75.7563C75.1875 76.573 74.1063 77.0042 73.0021 77.0042Z" fill="#2C2C2C"/>
<path d="M70.8333 43.75V31.4125C70.8333 29.4833 73.1646 28.5187 74.5292 29.8812L93.1167 48.4687C93.9625 49.3146 93.9625 50.6854 93.1167 51.5312L74.5292 70.1187C73.1646 71.4812 70.8333 70.5167 70.8333 68.5875V56.25H6.25V43.75H70.8333Z" fill="#f96465"/>
<path d="M73.0021 72.8375C72.4542 72.8375 71.9021 72.7313 71.3729 72.5125C69.7792 71.8521 68.75 70.3125 68.75 68.5875V58.3334H6.25002C5.10002 58.3334 4.16669 57.4021 4.16669 56.25V43.75C4.16669 42.5979 5.10002 41.6667 6.25002 41.6667H68.75V31.4125C68.75 29.6875 69.7792 28.1479 71.3729 27.4875C72.9646 26.825 74.7833 27.1875 76.0021 28.4084L94.5875 46.9959C95.3917 47.798 95.8334 48.8646 95.8334 50C95.8334 51.1354 95.3917 52.2021 94.5875 53.0042L76.0021 71.5896C75.1875 72.4063 74.1063 72.8375 73.0021 72.8375ZM8.33335 54.1667H70.8334C71.9834 54.1667 72.9167 55.0979 72.9167 56.25V68.5875L91.6438 50.0563L73.0563 31.3542L72.9167 43.75C72.9167 44.9021 71.9834 45.8334 70.8334 45.8334H8.33335V54.1667Z" fill="#2C2C2C"/>
</svg>
