<svg width="277" height="269" viewBox="0 0 277 269" fill="none" xmlns="http://www.w3.org/2000/svg">
<g opacity="0.15" clip-path="url(#clip0_28_469)">
<mask id="mask0_28_469" style="mask-type:luminance" maskUnits="userSpaceOnUse" x="0" y="-8" width="277" height="276">
<path d="M138.12 268C214.335 268 276.12 206.215 276.12 130C276.12 53.7847 214.335 -8 138.12 -8C61.9047 -8 0.119995 53.7847 0.119995 130C0.119995 206.215 61.9047 268 138.12 268Z" fill="white"/>
</mask>
<g mask="url(#mask0_28_469)">
<path d="M226.77 218.7L226.58 218.54C239.02 204.25 246.02 190.94 246.95 189.11C243.6 189.58 205.99 194.75 181 194.91V194.66C207.02 194.49 246.75 188.88 247.15 188.83L247.38 188.8L247.28 189.01C247.21 189.15 240.12 203.37 226.76 218.7H226.77Z" fill="black"/>
<path d="M249.09 187.22L248.92 187.03L249.02 186.95C256.5 180.32 270.41 167.99 274.39 151.93L274.63 151.99C270.64 168.12 256.68 180.49 249.19 187.14L249.1 187.22H249.09Z" fill="black"/>
<path d="M226.87 177.03H226.62C226.83 162.44 224.32 142.51 218.72 114.31L218.97 114.26C224.58 142.48 227.09 162.42 226.87 177.03Z" fill="black"/>
<path d="M172.7 194.4L172.57 194.19C186.97 185.64 215.7 162.48 240.59 136.38L240.77 136.55C215.87 162.67 187.12 185.85 172.7 194.4Z" fill="black"/>
<path d="M172.91 194.63L173.16 194.34C174.38 192.93 175.72 191.38 177.17 189.71C200.05 163.41 247.65 108.68 242.38 57.31L242.63 57.28C244.91 79.44 237.42 104.99 220.39 133.21C206.22 156.69 188.85 176.65 177.36 189.86C176.01 191.41 174.75 192.86 173.6 194.2C194.12 189.19 226.01 176.43 226.33 176.3L226.38 176.28L226.43 176.31C227.21 176.71 245.49 186.01 248.55 188.49C249.1 188.67 256.37 191.01 258.8 193.42C259.86 191.37 271.14 169.38 274.37 150.94L274.62 150.98C271.24 170.28 259.06 193.45 258.94 193.68L258.86 193.84L258.74 193.71C256.45 191.26 248.54 188.74 248.46 188.72L248.42 188.7C245.51 186.32 227.46 177.11 226.37 176.56C224.88 177.16 193.41 189.69 173.28 194.54L172.9 194.63H172.91Z" fill="black"/>
<path d="M240.89 138.32C231.44 102.36 210.49 68.86 189.26 38.01L189.47 37.87C203.35 58.03 213.02 73.53 220.83 88.15C230.28 105.81 236.92 122.2 241.14 138.26L240.9 138.32H240.89Z" fill="black"/>
<path d="M248.38 188.6C248.24 181.39 247.34 156.63 241.52 140.46L241.75 140.38C247.59 156.58 248.49 181.39 248.63 188.6H248.38Z" fill="black"/>
<path d="M241.61 219.53L241.4 219.39C256.4 197.62 264.8 168.86 263.88 142.47H264.13C265.06 168.91 256.64 197.72 241.61 219.54V219.53Z" fill="black"/>
<path d="M258.96 193.67L258.73 193.57C283.95 133.86 255.19 77.6301 241.66 56.2301L241.87 56.1001C248.23 66.1601 259.76 86.9501 265.48 113.12C271.7 141.61 269.51 168.71 258.97 193.67H258.96Z" fill="black"/>
<path d="M275.01 151.6C271.67 146.45 267.99 144.48 264.44 142.57L264.56 142.35C268.14 144.27 271.85 146.26 275.22 151.46L275.01 151.6Z" fill="black"/>
<path d="M264.42 141.97L264.32 141.74C271.53 138.56 273.95 134.99 276.29 131.54L276.5 131.24L276.71 131.38L276.5 131.68C274.14 135.16 271.7 138.76 264.42 141.97Z" fill="black"/>
<path d="M263.15 142.16C261.5 141.06 255.21 138.24 251.96 137.27L252.03 137.03C255.29 138.01 261.62 140.84 263.29 141.95L263.15 142.16Z" fill="black"/>
<path d="M263.5 141.19C262.34 131.55 259.77 121.35 255.64 110.04L255.87 109.95C260.01 121.29 262.58 131.5 263.74 141.16L263.49 141.19H263.5Z" fill="black"/>
<path d="M263.51 138.92C262.32 103.11 254.9 86.51 247.04 68.93C246.62 67.99 246.2 67.05 245.78 66.1L246.01 66C246.43 66.95 246.85 67.89 247.27 68.83C255.14 86.43 262.58 103.06 263.77 138.92H263.52H263.51Z" fill="black"/>
<path d="M263.51 138.92C262.21 99.6601 252.36 75.8501 242.9 57.7201L243.12 57.6001C252.6 75.7501 262.46 99.6001 263.76 138.9H263.51V138.92Z" fill="black"/>
<path d="M274.63 151.97L274.38 151.94C278.06 117.04 259.73 79.4001 219.92 40.0401L220.1 39.8601C226.67 46.3501 242.05 61.5501 254.81 81.6301C270.32 106.04 276.99 129.7 274.64 151.96L274.63 151.97Z" fill="black"/>
<path d="M274.97 151.63L274.72 151.61C277.11 119.57 265.89 93.69 256.05 77.62C244.17 58.2 229.28 44.85 219.79 40.23L219.9 40.01C229.42 44.65 244.35 58.03 256.26 77.49C266.11 93.59 277.36 119.52 274.97 151.63Z" fill="black"/>
<path d="M269.39 89.6601C264.37 72.7501 247.84 60.1501 242.45 57.0701L242.57 56.8501C245.67 58.6201 251.15 62.6401 256.41 68.1401C262.91 74.9401 267.48 82.3601 269.63 89.5901L269.39 89.6601Z" fill="black"/>
<path d="M273.22 160.3C272.07 151.02 275.02 140.76 276.23 138.07L276.46 138.17C275.26 140.84 272.33 151.04 273.47 160.27L273.22 160.3Z" fill="black"/>
<path d="M226.38 176.41L226.3 176.17C234.24 173.58 250.46 166.75 255.79 164.51C261.46 162.12 272 157.68 275.73 150.07L275.95 150.18C272.19 157.88 261.58 162.34 255.89 164.74C250.56 166.99 234.33 173.82 226.38 176.41Z" fill="black"/>
<path d="M248.62 187.84L248.39 187.74L249.09 186.1C255.79 170.49 260.63 159.2 263.52 142.05C262.03 141.67 246.22 137.7 241.81 136.91L241.85 136.66C246.47 137.48 263.52 141.78 263.69 141.83L263.8 141.86L263.78 141.97C260.88 159.21 256.03 170.53 249.31 186.19L248.6 187.83L248.62 187.84Z" fill="black"/>
<path d="M225.91 176.73L225.77 176.52C239.75 166.97 258.39 149.98 263.4 142.22L263.61 142.36C258.58 150.14 239.91 167.17 225.91 176.73Z" fill="black"/>
<path d="M171.88 196.33L171.64 196.25C191.31 136.24 197.11 83.19 188.89 38.56L189.14 38.52C197.37 83.19 191.57 136.28 171.89 196.33H171.88Z" fill="black"/>
<path d="M172.36 194.99L172.16 194.84C189.84 171.62 209.49 137.89 218.89 114.62L219.12 114.71C209.71 138 190.04 171.76 172.35 194.99H172.36Z" fill="black"/>
<path d="M162.52 122.91L162.49 122.66C162.96 122.6 209.7 116.51 217.23 114.66L217.29 114.9C209.75 116.76 163 122.84 162.53 122.9L162.52 122.91Z" fill="black"/>
<path d="M240.29 136.37C230.38 124.26 193.02 90.1201 182.31 81.0101L182.47 80.8201C193.19 89.9301 230.57 124.09 240.49 136.21L240.3 136.37H240.29Z" fill="black"/>
<path d="M219.09 114.14L218.93 113.95C238.77 97.67 250.43 80.71 252.64 64.9L252.89 64.93C250.67 80.8 238.99 97.81 219.1 114.13L219.09 114.14Z" fill="black"/>
<path d="M241.25 133.69L241.01 133.63C250.84 95.08 246.68 73.77 242.01 56.82L242.25 56.75C246.93 73.73 251.09 95.08 241.25 133.69Z" fill="black"/>
<path d="M259 193.69L258.76 193.63C262.09 179.83 255.46 165.23 255.39 165.09L255.37 165.06V165.02C256.24 159.6 251.92 137.54 251.88 137.31C251.75 130.23 248.4 118.05 243.76 101.19L244 101.12C248.65 117.99 252 130.18 252.13 137.28C252.17 137.48 256.48 159.49 255.63 165.01C255.99 165.82 262.26 180.13 259 193.68V193.69Z" fill="black"/>
<path d="M255.67 164.84L255.43 164.77C257.65 159.27 261 150.99 263.58 142.12C272.65 122.53 271.15 102.86 269.22 89.7701L269.47 89.7301C271.4 102.85 272.9 122.57 263.81 142.2C261.23 151.06 257.89 159.35 255.67 164.83V164.84Z" fill="black"/>
<path d="M268.27 82.71C260.23 63.45 238.29 49.9101 220.08 40.2701L220.2 40.05C238.45 49.71 260.43 63.2801 268.51 82.6101L268.28 82.71H268.27Z" fill="black"/>
<path d="M65.37 124.91L65.31 124.67C143.39 106.43 196.43 92.64 222.96 83.67C248.79 74.94 255.45 67.55 257.13 63.92C257.97 62.09 257.73 60.89 257.51 60.34L257.74 60.25C257.98 60.84 258.24 62.11 257.36 64.03C255.67 67.7 248.96 75.16 223.04 83.92C196.5 92.89 143.45 106.68 65.36 124.92L65.37 124.91Z" fill="black"/>
<path d="M127.04 70.6601L126.98 70.4201C131.24 69.3401 137.03 67.9301 143.74 66.2901C167.9 60.4001 204.42 51.5001 221.47 45.4201C231.21 41.9501 236.57 38.7301 237.41 35.8401C237.88 34.2301 236.91 33.0001 236.14 32.0101C235.96 31.7801 235.79 31.5601 235.66 31.3601L235.87 31.2201C236 31.4101 236.17 31.6301 236.34 31.8501C237.11 32.8301 238.16 34.1701 237.65 35.9101C236.78 38.9201 231.51 42.1101 221.55 45.6601C204.48 51.7401 167.96 60.6501 143.79 66.5401C137.08 68.1801 131.29 69.5901 127.04 70.6601Z" fill="black"/>
<path d="M189.5 37.8301L189.26 37.7501C195.64 19.2401 191.09 10.3901 186.41 4.75009L186.6 4.59009C190.95 9.84009 195.99 18.9901 189.5 37.8401V37.8301Z" fill="black"/>
<path d="M187.89 37.7101C183.65 27.5101 171.89 10.0301 161.8 1.26007L161.96 1.07007C172.08 9.86007 183.87 27.3901 188.12 37.6201L187.89 37.7201V37.7101Z" fill="black"/>
<path d="M218.16 39.75C212.52 39.09 159.1 36.24 147.84 35.92V35.67C159.11 36 212.55 38.84 218.19 39.5L218.16 39.75Z" fill="black"/>
<path d="M241.62 56.9C229.9 50.87 199.54 40.93 188.81 38.24L188.87 38C199.61 40.68 230 50.64 241.73 56.68L241.61 56.9H241.62Z" fill="black"/>
<path d="M242.06 57.01C235.84 44.91 223.4 31.35 214.58 22.21L214.76 22.04C223.59 31.2 236.05 44.77 242.28 56.9L242.06 57.01Z" fill="black"/>
<path d="M182.08 81.2201L181.93 81.0201C194.5 71.6801 212.4 53.2401 219.39 39.7301L219.61 39.8501C212.6 53.3901 194.67 71.8701 182.07 81.2301L182.08 81.2201Z" fill="black"/>
<path d="M162.79 122.51L162.57 122.39C162.73 122.09 178.78 91.7601 182.73 79.9101C186.68 68.0501 188.39 46.5801 188.56 38.6101H188.81C188.64 46.6001 186.93 68.1001 182.97 79.9901C179.01 91.8601 162.96 122.2 162.8 122.51H162.79Z" fill="black"/>
<path d="M100.55 147.16L100.46 146.93C110.23 143.3 135.8 133.61 162.2 122.18C180.38 112.7 198.08 101.42 212.02 90.42C227.66 78.08 238.08 66.52 242.14 57L242.37 57.1C238.29 66.66 227.85 78.25 212.18 90.62C198.23 101.63 180.52 112.92 162.32 122.41C135.9 133.84 110.32 143.53 100.56 147.17L100.55 147.16Z" fill="black"/>
<path d="M172.63 193.05C172.58 192.51 167.33 138.89 162.88 124.07L163.12 124C167.57 138.84 172.82 192.48 172.87 193.02L172.62 193.04L172.63 193.05Z" fill="black"/>
<path d="M160.46 120.9C159.95 120.67 109.57 98.0601 98.44 90.6401L98.58 90.4301C109.69 97.8401 160.05 120.44 160.56 120.67L160.46 120.9Z" fill="black"/>
<path d="M97.13 87.3001C95.73 69.8601 94.47 49.7401 97.13 31.6801C98.63 21.4901 101.29 13.0801 105.02 6.69005C109.37 -0.759947 115.32 -5.72995 122.72 -8.06995L122.8 -7.82995C90.6 2.39005 95.18 59.7301 97.39 87.2901L97.14 87.3101L97.13 87.3001Z" fill="black"/>
<path d="M99.39 146.57C87.18 95.2401 84.86 55.08 92.48 27.23C99.66 0.980045 113.57 -6.02996 119.22 -7.82996L119.3 -7.58996C113.69 -5.79996 99.88 1.17005 92.73 27.29C85.12 55.11 87.44 95.22 99.64 146.51L99.4 146.57H99.39Z" fill="black"/>
<path d="M257.26 108.55L257.09 108.37C267.37 98.7701 268.01 95.6601 268.91 91.3601C269.01 90.9001 269.11 90.4301 269.22 89.9301L269.46 89.9901C269.35 90.4801 269.25 90.9601 269.15 91.4101C268.24 95.7501 267.59 98.8901 257.25 108.55H257.26Z" fill="black"/>
<path d="M243.87 101.59L243.64 101.49C252.26 82.49 252.73 74.66 252.46 64.88H252.71C252.98 74.69 252.5 82.54 243.87 101.6V101.59Z" fill="black"/>
<path d="M276.38 135.29H276.13C276.38 114.88 271.57 97.55 269.27 89.21L269.14 88.73L269.38 88.66L269.51 89.14C271.82 97.48 276.63 114.84 276.38 135.28V135.29Z" fill="black"/>
<path d="M276.64 132.59C270.73 118.06 258.24 111.97 258.12 111.91C258.08 111.9 256.84 111.47 254.85 109.9C254.27 109.44 253.57 108.84 252.75 108.14C250.73 106.4 247.96 104.03 244.52 101.66L244.66 101.45C248.11 103.83 250.88 106.21 252.91 107.95C253.72 108.65 254.43 109.25 255 109.71C256.96 111.26 258.2 111.69 258.21 111.69C258.35 111.76 270.92 117.89 276.87 132.51L276.64 132.6V132.59Z" fill="black"/>
<path d="M274.76 153.17L274.51 153.15C278.07 107.75 262.79 82.1801 254.58 68.4401C253.84 67.2101 253.15 66.0401 252.53 64.9801L252.75 64.8601C253.37 65.9301 254.06 67.0901 254.8 68.3201C263.02 82.0801 278.33 107.7 274.77 153.18L274.76 153.17Z" fill="black"/>
<path d="M265.38 139.33L265.15 139.24C275.19 112.01 273.54 103.72 272.22 97.07C272.06 96.25 271.9 95.48 271.77 94.68L272.02 94.64C272.15 95.43 272.31 96.21 272.47 97.02C273.8 103.71 275.46 112.03 265.39 139.33H265.38Z" fill="black"/>
<path d="M268.93 88.55C266.4 82.5 258.99 71.33 252.42 64.97L252.59 64.79C259.19 71.17 266.62 82.38 269.16 88.46L268.93 88.56V88.55Z" fill="black"/>
<path d="M269.6 90.34C264.87 79.73 252.12 64.82 244.31 59.08L244.46 58.88C252.29 64.64 265.08 79.6 269.83 90.24L269.6 90.34Z" fill="black"/>
<path d="M246.14 65.8401L246.09 65.5901C247.59 65.3101 251.23 64.6501 252.58 64.6101V64.8601C251.25 64.8901 247.63 65.5501 246.13 65.8401H246.14Z" fill="black"/>
<path d="M226.42 60C226.42 60 221.9 55.25 218.84 53.9L218.75 53.86L218.77 53.76C218.78 53.68 220.01 45.7 219.27 38.92L219.52 38.89C220.22 45.3 219.17 52.78 219.03 53.7C222.14 55.12 226.56 59.77 226.61 59.81L226.43 59.98L226.42 60Z" fill="black"/>
<path d="M218.75 114.82L218.55 114.67C240.01 86.7 242.1 68.24 241.8 56.79H242.05C242.34 68.27 240.25 86.79 218.74 114.82H218.75Z" fill="black"/>
<path d="M184.71 243.38L184.55 243.19C190.86 237.86 199.43 228.95 210.04 216.7L210.23 216.86C199.62 229.11 191.03 238.04 184.72 243.37L184.71 243.38Z" fill="black"/>
<path d="M134.8 270.16L134.72 269.92C160.14 261.2 191.72 221.36 192.04 220.96L192.24 221.11C191.92 221.51 160.3 261.41 134.81 270.15L134.8 270.16Z" fill="black"/>
<path d="M185.23 243.93C184.53 242.68 175.4 236.49 169.44 232.64L169.58 232.43C174.73 235.76 184.67 242.41 185.45 243.81L185.23 243.93Z" fill="black"/>
<path d="M142.59 245.76L142.42 245.58C150.33 238.17 172.81 214.08 173.04 213.84L173.22 214.01C172.99 214.25 150.5 238.35 142.59 245.77V245.76Z" fill="black"/>
<path d="M138.53 245.74L122.45 223.88L145.19 210.18L145.32 210.4L122.82 223.95L138.73 245.59L138.53 245.74Z" fill="black"/>
<path d="M122.38 264.05C121.91 257.68 127.41 240.39 130.05 232.08L130.51 230.63C132.9 223.09 149.61 177.93 154.14 166.25L154.49 165.34L154.38 166.31C150.43 200.79 141.34 244.14 141.25 244.57L141 244.52C141.09 244.09 150 201.57 154.01 167.26C149.03 180.21 133.07 223.36 130.74 230.71L130.28 232.16C127.64 240.45 122.15 257.71 122.62 264.04L122.37 264.06L122.38 264.05Z" fill="black"/>
<path d="M162.72 265.16L162.62 264.93C172.92 259.94 169.5 232.42 169.47 232.14V232.12L173.05 213.77L173.3 213.82L169.72 232.13C169.77 232.55 170.6 239.37 170.2 246.68C169.86 252.94 168.53 260.72 164.28 264.16C167.96 262.27 177.11 256.52 184.57 243.14L184.79 243.26C175.21 260.43 162.85 265.1 162.72 265.15V265.16Z" fill="black"/>
<path d="M137.78 268.54L137.74 268.29C158.84 264.59 200.84 227.83 210.04 216.46L210.24 216.62C201.02 228.01 158.94 264.83 137.79 268.54H137.78Z" fill="black"/>
<path d="M162.14 265.11C161.68 263.16 152.6 256.56 145.97 251.75C143.74 250.13 141.82 248.74 140.56 247.77L140.71 247.57C141.96 248.54 143.88 249.93 146.11 251.55C152.77 256.39 161.9 263.01 162.38 265.06L162.14 265.12V265.11Z" fill="black"/>
<path d="M169.531 232.013L142.449 246.515L142.567 246.736L169.649 232.233L169.531 232.013Z" fill="black"/>
<path d="M105.56 262.9L105.46 262.67L136.63 249.51L136.73 249.73L110.23 262.9L110.12 262.68L132.98 251.32L105.56 262.9Z" fill="black"/>
<path d="M97.6 258.35C95.36 258.35 93.37 258.26 91.67 258.08L91.7 257.83C110.06 259.81 162.15 250.44 183.15 243.67L183.23 243.91C164.16 250.06 119.47 258.35 97.61 258.35H97.6Z" fill="black"/>
<path d="M151 265.89C134.1 265.89 108.94 263.51 92.06 258.24L92.13 258C113 264.52 146.55 266.61 161.42 265.25L161.44 265.5C158.58 265.76 155.02 265.9 151 265.9V265.89Z" fill="black"/>
<path d="M135.52 269.08L135.5 268.83C145.62 267.9 162.73 243.36 168.99 232.31L169.21 232.43C164.98 239.9 146.86 268.03 135.53 269.08H135.52Z" fill="black"/>
<path d="M136.96 272.41L136.72 272.33C137.56 269.81 139.32 256.54 139.96 250.44L140.21 250.47C139.57 256.58 137.8 269.88 136.95 272.41H136.96Z" fill="black"/>
<path d="M127.39 268.07C126.84 266.15 132.66 258.16 137.79 251.42C138.11 250.99 138.38 250.64 138.58 250.38L138.78 250.53C138.59 250.79 138.32 251.14 137.99 251.57C135.28 255.13 127.05 265.96 127.63 268.01L127.39 268.08V268.07Z" fill="black"/>
<path d="M122.99 263.81L122.86 263.6C123.24 263.36 161.09 239.37 167.67 233.03L167.84 233.21C161.24 239.56 123.37 263.57 122.99 263.81Z" fill="black"/>
<path d="M122.43 264.38L122.26 264.2C123.64 262.89 135.32 251.97 137.68 250.03L137.84 250.22C135.48 252.16 123.81 263.07 122.43 264.38Z" fill="black"/>
<path d="M143.09 247.75V247.5C147.06 247.5 171.99 245.4 183.9 243.17L183.95 243.42C172.03 245.65 147.07 247.76 143.09 247.76V247.75Z" fill="black"/>
<path d="M144.38 246.41L144.29 246.18C148.65 244.59 187.53 230.25 208.6 217.44L208.73 217.65C187.64 230.48 148.74 244.82 144.37 246.41H144.38Z" fill="black"/>
<path d="M142.56 266.15L142.46 265.92C164.26 256.51 196.11 231.14 209.8 217.2L209.98 217.37C196.28 231.32 164.39 256.72 142.57 266.15H142.56Z" fill="black"/>
<path d="M135.97 268.53C135.77 268.47 115.48 262.43 108.04 254.62L108.22 254.45C115.61 262.21 135.84 268.23 136.04 268.29L135.97 268.53Z" fill="black"/>
<path d="M129.2 268.32C129.03 268.23 124.91 266.2 123.57 264.45L123.77 264.3C125.07 266.01 129.27 268.08 129.31 268.1L129.2 268.32Z" fill="black"/>
<path d="M131.23 269.04C123.54 267.07 112.81 260.15 109.16 254.8L109.37 254.66C113 259.97 123.65 266.84 131.3 268.8L131.24 269.04H131.23Z" fill="black"/>
<path d="M107.85 253.68C104.48 249.79 100.26 244.83 99.28 243.29L99.49 243.16C100.25 244.35 103.29 248.03 108.04 253.52L107.85 253.68Z" fill="black"/>
<path d="M106.41 253.61L106.22 253.36C100.43 245.65 98.56 242.74 98.02 241.65L98.24 241.54C98.78 242.62 100.63 245.51 106.42 253.21L106.61 253.46L106.41 253.61Z" fill="black"/>
<path d="M109.86 262.82C106.87 260.13 99.68 252.79 97.63 242.75L97.88 242.7C99.91 252.67 107.05 259.96 110.03 262.63L109.86 262.82Z" fill="black"/>
<path d="M136.16 247.25C130.32 246.32 107.29 242.36 99.64 240.16L99.71 239.92C107.34 242.11 130.36 246.07 136.19 247L136.15 247.25H136.16Z" fill="black"/>
<path d="M125.32 242.28C110.64 242.28 71.85 236.8 55.35 232.28C46.5 229.86 39.43 227.44 37.96 226.77L38.06 226.54C39.53 227.21 46.58 229.61 55.42 232.03C72.66 236.75 114.24 242.52 127.17 241.98V242.23C126.61 242.25 125.99 242.26 125.32 242.26V242.28Z" fill="black"/>
<path d="M109.38 257.74C81.57 247.02 38.99 212.79 32.9 203.78L33.11 203.64C39.18 212.63 81.69 246.8 109.47 257.51L109.38 257.74Z" fill="black"/>
<path d="M70.21 248.17H70.16C70.16 248.17 68.46 248.05 67.97 248.08L67.95 247.83C68.41 247.79 69.85 247.89 70.13 247.91C75.7 243.74 94.35 236.91 98.04 235.59L98.12 235.83C94.43 237.16 75.73 244 70.24 248.15L70.2 248.18L70.21 248.17Z" fill="black"/>
<path d="M110.07 258.16C93 255.72 71.1 251.56 63.68 245.55C58.59 241.44 57.05 240.72 55.69 240.08C54.97 239.75 54.3 239.43 53.18 238.64L53.32 238.44C54.42 239.22 55.08 239.53 55.79 239.86C57.16 240.5 58.72 241.23 63.83 245.36C71.21 251.33 93.07 255.48 110.1 257.92L110.06 258.17L110.07 258.16Z" fill="black"/>
<path d="M116.48 265.74C102.4 261.88 82.66 248.57 62.3 229.23C43.43 211.3 28.11 191.99 22.32 178.84L22.55 178.74C28.33 191.86 43.63 211.14 62.48 229.05C82.81 248.37 102.52 261.65 116.56 265.5L116.49 265.74H116.48Z" fill="black"/>
<path d="M128.79 242.4C109.23 233.4 79.57 217.74 78.64 217.24C77.54 217.11 42.08 212.7 24.29 203.56C24.22 203.5 19.36 199.45 14.08 191.85L14.29 191.71C19.55 199.27 24.39 203.31 24.43 203.35C42.35 212.55 78.34 216.95 78.7 216.99H78.74C79.02 217.16 109.12 233.07 128.9 242.17L128.8 242.4H128.79Z" fill="black"/>
<path d="M97.8 236.24C97.5 236.13 67.22 225.38 64.12 223.73C63.82 223.62 32.18 211.96 24.25 203.54L24.43 203.37C32.32 211.75 63.9 223.39 64.22 223.5C66.84 224.88 89.41 232.99 97.89 236L97.81 236.24H97.8Z" fill="black"/>
<path d="M43.25 231.21C35.46 222.73 34.07 212.12 39.13 199.66C43.13 189.81 49.91 181.89 52.47 178.91C52.64 178.71 52.79 178.53 52.92 178.39L53.11 178.55C52.99 178.7 52.83 178.87 52.66 179.08C50.11 182.05 43.34 189.96 39.36 199.77C34.34 212.13 35.71 222.66 43.44 231.06L43.26 231.23L43.25 231.21Z" fill="black"/>
<path d="M32.88 203.33L32.64 203.25C34.77 197.13 48.72 180.92 54.11 177.52L54.24 177.73C48.88 181.11 34.99 197.24 32.87 203.33H32.88Z" fill="black"/>
<path d="M24.46 202.58L24.23 202.49C27.31 194.52 40.63 184.64 51.71 178.84L51.83 179.06C40.8 184.84 27.53 194.66 24.47 202.58H24.46Z" fill="black"/>
<path d="M71.5 242.79C61.96 233.27 52.17 217.65 44.66 199.94C36.64 181.04 31.98 161.69 31.55 145.46H31.8C32.73 180.7 53.17 224.15 71.68 242.62L71.5 242.8V242.79Z" fill="black"/>
<path d="M78.61 216.16C57.73 212.36 42.83 208.45 34.33 204.53L34.43 204.3C42.91 208.21 57.79 212.12 78.65 215.92L78.61 216.17V216.16Z" fill="black"/>
<path d="M31.97 203.16C21.02 199.15 16.99 194.28 14.04 190.72C13.62 190.21 13.22 189.73 12.83 189.29L13.02 189.12C13.41 189.56 13.81 190.05 14.23 190.56C17.16 194.09 21.17 198.93 32.05 202.92L31.96 203.15L31.97 203.16Z" fill="black"/>
<path d="M46.37 231.76L46.14 231.66C47.97 227.55 64.05 221.29 77.21 216.76L77.29 217C58.75 223.38 47.77 228.62 46.36 231.77L46.37 231.76Z" fill="black"/>
<path d="M43.79 224.54C40.68 224.54 37.98 224.43 36.33 224.16L36.37 223.91C41.62 224.77 57.54 223.95 63.17 223.41L63.19 223.66C59.32 224.03 50.59 224.54 43.79 224.54Z" fill="black"/>
<path d="M35.78 223.33L35.74 223.08C36.08 223.03 70.14 218.06 76.15 216.67L76.21 216.91C70.19 218.31 36.13 223.28 35.78 223.33Z" fill="black"/>
<path d="M48.67 235.75C46.82 233.73 45.92 231.67 46.01 229.62C46.16 226.1 49.19 223.32 51.01 221.67C51.19 221.5 51.36 221.35 51.52 221.2L51.69 221.38C51.53 221.53 51.36 221.68 51.18 221.85C49.4 223.48 46.41 226.21 46.27 229.63C46.18 231.61 47.06 233.61 48.86 235.58L48.68 235.75H48.67Z" fill="black"/>
<path d="M69.43 240.79C62 240.79 53.33 238.53 50.22 237.4L50.3 237.16C53.36 238.27 62.56 240.65 70.01 240.53V240.78C69.82 240.78 69.63 240.78 69.43 240.78V240.79Z" fill="black"/>
<path d="M97.42 235.54C87.7 225.65 79.49 215.8 79.41 215.7L79.6 215.54C79.68 215.64 87.88 225.48 97.59 235.37L97.41 235.54H97.42Z" fill="black"/>
<path d="M77.58 213.79C72.79 208.03 57.32 187.11 53.82 180.35L54.04 180.23C57.54 186.97 72.99 207.87 77.78 213.62L77.59 213.78L77.58 213.79Z" fill="black"/>
<path d="M12.4 191.23C11.44 189.67 11.23 188.08 11.78 186.51C13.51 181.56 22.1 178.42 22.47 178.29H22.51C25.35 178.29 51.25 177.79 51.51 177.78V178.03C51.25 178.03 25.49 178.53 22.53 178.53C22.06 178.7 13.67 181.86 12.01 186.59C11.49 188.08 11.69 189.6 12.61 191.09L12.4 191.22V191.23Z" fill="black"/>
<path d="M21.12 188.96C15.19 188.96 12.45 188.6 12.26 187.82L12.5 187.76C12.61 188.22 14.38 188.76 22.19 188.71C22.41 188.71 22.59 188.71 22.72 188.71V188.96C22.59 188.96 22.41 188.96 22.2 188.96C21.83 188.96 21.48 188.96 21.13 188.96H21.12Z" fill="black"/>
<path d="M38.37 197.21C34.99 196.88 17.86 194.95 12.91 188.83L13.1 188.67C17.99 194.71 35.02 196.63 38.39 196.96L38.37 197.21Z" fill="black"/>
<path d="M28.97 216.04C27.93 214.4 26.36 210.15 25.1 206.73C24.62 205.43 24.21 204.3 23.89 203.52L24.12 203.43C24.43 204.21 24.85 205.34 25.33 206.64C26.58 210.05 28.14 214.29 29.17 215.91L28.96 216.04H28.97Z" fill="black"/>
<path d="M31.87 215.48C30.55 215.35 27.25 214.78 25.1 212.18L25.29 212.02C27.38 214.54 30.61 215.1 31.89 215.22L31.87 215.47V215.48Z" fill="black"/>
<path d="M33.33 220.83C32.59 218.54 32.02 215.84 32.01 215.82L32.26 215.77C32.26 215.77 32.83 218.48 33.57 220.76L33.33 220.84V220.83Z" fill="black"/>
<path d="M31.03 213.8C27.57 208.98 24.49 204.22 24.46 204.17L22.89 201.22C22.77 201 11.03 178.82 8.96002 170.48L9.20002 170.42C11.26 178.73 22.99 200.88 23.11 201.1L24.67 204.04C24.67 204.04 27.77 208.83 31.22 213.65L31.02 213.8H31.03Z" fill="black"/>
<path d="M26.84 190.3C22.35 186.24 11.72 174.66 8.40002 168.85L8.62002 168.73C11.93 174.52 22.53 186.06 27.01 190.12L26.84 190.31V190.3Z" fill="black"/>
<path d="M22.47 177.13L22.22 177.11C22.9 166.28 28.41 150.84 30.23 146.73L30.46 146.83C28.64 150.92 23.15 166.32 22.47 177.12V177.13Z" fill="black"/>
<path d="M44.55 230.26C30.29 216.86 22.38 186.82 22.45 180.73H22.7C22.63 186.8 30.52 216.73 44.72 230.08L44.55 230.26Z" fill="black"/>
<path d="M70.73 242.49C65.47 241.13 54.5 237.48 46.78 232.39L46.92 232.18C54.61 237.25 65.55 240.89 70.8 242.25L70.74 242.49H70.73Z" fill="black"/>
<path d="M70.03 248.15C62.58 243.61 48.55 234.33 45.18 231.3L45.35 231.11C48.37 233.83 59.99 241.59 67.72 246.42C65.39 244.64 61.99 241.89 60.91 240.27L61.12 240.13C62.76 242.58 70.1 247.88 70.17 247.93L70.03 248.14V248.15Z" fill="black"/>
<path d="M86.28 257.81C83.48 256.2 74.15 248.94 72.97 243.9L73.21 243.84C74.37 248.81 83.62 255.99 86.4 257.59L86.28 257.81Z" fill="black"/>
<path d="M69.85 242.23C62.43 237.2 55.82 231.94 55.76 231.89C55.57 231.69 38.19 212.87 34.15 205.94L34.37 205.81C38.4 212.72 55.76 231.52 55.94 231.71C55.99 231.75 62.59 237 70 242.02L69.86 242.23H69.85Z" fill="black"/>
<path d="M60.17 240.21C53.24 233.13 40.48 219.01 32.9 203.93L33.12 203.82C40.68 218.87 53.43 232.97 60.35 240.04L60.17 240.21Z" fill="black"/>
<path d="M43.47 211.99C37.2 211.99 30.84 211.65 24.62 210.84L24.65 210.59C46.71 213.47 70.39 210.4 86.38 207.32C105.07 203.72 122.74 198.22 132.48 192.97L132.6 193.19C122.84 198.45 105.15 203.96 86.43 207.57C74.94 209.79 59.46 212 43.47 212V211.99Z" fill="black"/>
<path d="M70.36 240.79C64.69 239.58 51.66 234.77 46.33 231.9L46.45 231.68C51.77 234.54 64.76 239.34 70.42 240.54L70.37 240.78L70.36 240.79Z" fill="black"/>
<path d="M28.77 123.84C19.15 103.43 15.81 84.9501 18.82 68.9201C21.3 55.7201 27.4 47.3801 31.04 42.4001C31.35 41.9801 31.64 41.5901 31.9 41.2201L32.1 41.3701C31.84 41.7401 31.55 42.1301 31.24 42.5601C23.87 52.6401 6.61002 76.2501 28.99 123.75L28.76 123.86L28.77 123.84Z" fill="black"/>
<path d="M30.26 121.31L30.01 121.27C32.95 102.2 38.01 84.3301 45.07 68.1801C52.19 51.8701 61.39 37.1601 72.42 24.4601L72.61 24.6201C50.47 50.1201 36.22 82.6501 30.26 121.31Z" fill="black"/>
<path d="M33.96 48.3901L33.8 48.2001C40.66 42.5101 54.8 33.0701 70.95 24.8101L71.06 25.0301C54.93 33.2801 40.8 42.7101 33.96 48.3901Z" fill="black"/>
<path d="M34.19 47.28L33.99 47.14C41.24 36.83 53.77 24.72 69.27 13.03L69.42 13.23C53.94 24.91 41.44 37 34.2 47.29L34.19 47.28Z" fill="black"/>
<path d="M28.51 123.45C19.87 95.03 25.96 74.87 29.99 61.52C31.56 56.33 32.79 52.24 32.51 49.43C31.95 43.82 33.49 40.56 37.16 35.39L37.36 35.53C33.73 40.65 32.2 43.87 32.76 49.4C33.05 52.26 31.81 56.38 30.23 61.59C26.21 74.91 20.13 95.03 28.75 123.37L28.51 123.44V123.45Z" fill="black"/>
<path d="M73.78 156.06C61.26 148.8 42.41 136.28 30.6 126.38L30.76 126.19C42.56 136.08 61.4 148.59 73.91 155.84L73.79 156.06H73.78Z" fill="black"/>
<path d="M26.79 123.57C26.72 123.54 19.91 120.68 13.64 115.87C5.31001 109.49 1.71001 102.59 3.22001 95.9301L3.46001 95.9901C1.58001 104.28 8.04001 111.27 13.79 115.67C20.04 120.46 26.82 123.32 26.89 123.34L26.79 123.57Z" fill="black"/>
<path d="M1.50002 99.96L1.27002 99.87C4.34002 92.02 11.52 86.28 22.6 82.8L22.68 83.04C11.67 86.5 4.55002 92.19 1.51002 99.97L1.50002 99.96Z" fill="black"/>
<path d="M29.62 123.09L29.4 122.98C32.99 115.79 41.83 103.44 56.41 85.2101L56.61 85.3701C42.04 103.59 33.21 115.93 29.62 123.1V123.09Z" fill="black"/>
<path d="M29.34 144.36C23.74 143.98 13.23 142.72 8.59002 141.74L8.30002 141.68L8.55002 141.52C8.63002 141.47 10.48 140.27 11.9 140.4L11.88 140.65C10.86 140.56 9.52002 141.25 8.96002 141.57C13.74 142.54 23.89 143.75 29.37 144.12L29.35 144.37L29.34 144.36Z" fill="black"/>
<path d="M50.9 196.11C38.79 177.7 30.89 139.97 29.38 128.31L29.63 128.28C31.14 139.93 39.03 177.61 51.11 195.98L50.9 196.12V196.11Z" fill="black"/>
<path d="M52.97 177.58C42.08 174.54 28.44 168.31 16.46 160.91C15.57 160.71 0.88001 157.36 0.0100098 149.81L0.26001 149.78C1.11001 157.23 16.38 160.64 16.54 160.67L16.58 160.69C28.54 168.08 42.18 174.31 53.05 177.34L52.98 177.58H52.97Z" fill="black"/>
<path d="M9.98 181.67C6.92 174.53 12.34 165.03 15.92 161.53L16.09 161.71C12.55 165.17 7.19 174.54 10.2 181.57L9.97 181.67H9.98Z" fill="black"/>
<path d="M6.47002 172.88C5.87002 166.55 12.09 163.1 15.43 161.25C15.82 161.03 16.16 160.84 16.45 160.67L16.58 160.88C16.29 161.05 15.95 161.24 15.56 161.46C12.27 163.28 6.14002 166.68 6.73002 172.84L6.48002 172.86L6.47002 172.88Z" fill="black"/>
<path d="M7.09002 173.92C7.05002 172.67 7.44002 169.95 7.93002 168.66L8.16002 168.75C7.67002 170.01 7.29002 172.68 7.33002 173.91H7.08002L7.09002 173.92Z" fill="black"/>
<path d="M72.3 243.51C56.82 230.43 44.38 216.69 34.26 201.51C22.33 183.63 13.66 163.49 8.49002 141.65C3.87002 122.13 4.33002 102.26 9.87002 82.5901C14.38 66.5901 21.02 54.9401 24.59 48.6801C25.1 47.7801 25.55 47.0001 25.9 46.3501L26.12 46.4701C25.77 47.1201 25.32 47.9001 24.81 48.8001C18.16 60.4701 -2.06998 95.9701 8.74002 141.59C18.28 181.85 39.13 215.13 72.47 243.32L72.31 243.51H72.3Z" fill="black"/>
<path d="M109.4 258.08C91.06 253.73 63.59 243.86 46.61 232.48L46.75 232.27C63.71 243.63 91.14 253.49 109.46 257.84L109.4 258.08Z" fill="black"/>
<path d="M87.87 258.9C82.86 256.35 78.06 253.78 70.1 248.06L70.25 247.86C78.2 253.57 82.98 256.14 87.98 258.68L87.87 258.9Z" fill="black"/>
<path d="M78.9 254.19C69.53 248.52 53.12 237.04 47.66 230.43L47.85 230.27C53.29 236.86 69.67 248.31 79.03 253.97L78.9 254.18V254.19Z" fill="black"/>
<path d="M59.97 239.41C52.15 236.99 32.85 217.7 18.38 189.15C10.54 173.68 5.41001 158.06 3.12001 142.75C0.400009 124.52 1.83001 107.13 7.38001 91.0901L7.62001 91.1701C-5.32999 128.58 6.45001 165.04 18.6 189.04C33.03 217.53 52.26 236.77 60.04 239.18L59.97 239.42V239.41Z" fill="black"/>
<path d="M7.22 164.97C7.01 162.95 6.74 160.79 6.45 158.5C5.06 147.52 3.32 133.86 6.03 115.96C9.23 94.7701 17.86 72.9501 32.41 49.2301L32.62 49.3601C-0.339998 103.08 3.89 136.41 6.69 158.46C6.98 160.75 7.26 162.91 7.46 164.94L7.21 164.97H7.22Z" fill="black"/>
<path d="M16.3 159.98L16.05 159.93C17.89 150.37 24.56 133.23 28.73 125.89L28.95 126.01C24.79 133.33 18.14 150.44 16.3 159.97V159.98Z" fill="black"/>
<path d="M7.97 166.3H7.72C8.58 150.78 22.89 132.59 27.25 127.38L27.44 127.54C23.09 132.73 8.83 150.88 7.97 166.3Z" fill="black"/>
<path d="M7 166.21C4.64 163.94 2.94 161.31 2.22 158.82L2.46 158.75C3.17 161.2 4.85 163.78 7.18 166.03L7.01 166.21H7Z" fill="black"/>
<path d="M6.73001 165.02C4.80001 161.59 1.83001 154.57 0.640015 150.58L0.880015 150.51C2.07001 154.49 5.03001 161.49 6.95001 164.9L6.73001 165.02Z" fill="black"/>
<path d="M5.06001 160.34C4.12001 158.3 0.840015 148.84 0.140015 146.49L0.380015 146.42C1.16001 149.03 4.41001 158.32 5.29001 160.24L5.06001 160.34Z" fill="black"/>
<path d="M7.45001 174.13C7.00001 172.37 6.22001 167.87 5.07001 160.37L5.32001 160.33C6.47001 167.82 7.24001 172.32 7.69001 174.07L7.45001 174.13Z" fill="black"/>
<path d="M6.64001 163.2C4.85001 157.45 2.47001 148.85 2.45001 148.76L2.69001 148.69C2.71001 148.78 5.09001 157.38 6.88001 163.12L6.64001 163.19V163.2Z" fill="black"/>
<path d="M8.39 168.75C1.48 152.47 1.37 142.92 1.24 130.83L1.22 128.95H1.47L1.49 130.83C1.63 142.89 1.73 152.42 8.62 168.65L8.39 168.75Z" fill="black"/>
<path d="M15.88 160.06C12.54 134.66 15.16 106.13 22.89 83.75L23.13 83.83C15.42 106.17 12.8 134.66 16.14 160.02L15.89 160.05L15.88 160.06Z" fill="black"/>
<path d="M38.27 197.21C31.9 180.37 30.97 150.07 30.89 146.67H31.14C31.22 150.06 32.15 180.32 38.51 197.12L38.28 197.21H38.27Z" fill="black"/>
<path d="M15.81 158.92C14.47 155.72 12.7 146.01 11.94 141.86C11.85 141.36 11.77 140.94 11.72 140.64L11.97 140.59C12.03 140.89 12.1 141.3 12.19 141.81C12.95 145.95 14.71 155.65 16.04 158.82L15.81 158.92Z" fill="black"/>
<path d="M16.89 162.09C16.75 161.78 16.5 161.21 16.16 160.46C14.2 156.08 9.62 145.84 8.13 141.58L8.37 141.5C9.86 145.75 14.44 155.99 16.39 160.36C16.73 161.11 16.98 161.68 17.12 161.99L16.89 162.09Z" fill="black"/>
<path d="M0.0500161 141.63C-0.189984 135.63 2.05002 130.85 3.41002 128.97L3.61002 129.12C2.27002 130.97 0.0700161 135.7 0.300016 141.62H0.0500161V141.63Z" fill="black"/>
<path d="M2.31 148.24C1.04 143.88 2.35 136.31 3.12 131.8C3.26 130.96 3.39 130.24 3.47 129.69L3.72 129.73C3.64 130.28 3.51 131.01 3.37 131.84C2.6 136.34 1.3 143.87 2.55 148.17L2.31 148.24Z" fill="black"/>
<path d="M7.98002 167.92C-0.389985 149.33 0.620015 122.21 0.630015 121.95H0.880015C0.870015 122.23 -0.139985 149.28 8.20002 167.82L7.97002 167.92H7.98002Z" fill="black"/>
<path d="M92.07 258.25C85.9 257.12 73.26 251.61 67.61 248.07L67.74 247.86C73.37 251.4 85.97 256.89 92.11 258.01L92.07 258.26V258.25Z" fill="black"/>
</g>
<path d="M138.12 268.12C119.47 268.12 101.38 264.47 84.36 257.27C67.91 250.31 53.14 240.35 40.46 227.67C27.78 214.99 17.82 200.21 10.86 183.77C3.65 166.73 0 148.65 0 130C0 111.35 3.83 92.38 11.38 75C18.68 58.21 29.09 43.23 42.34 30.48L42.51 30.66C15.26 56.9 0.25 92.18 0.25 130C0.25 206.02 62.1 267.88 138.13 267.88C151.17 267.88 164.08 266.06 176.49 262.47L176.56 262.71C164.13 266.3 151.2 268.12 138.13 268.12H138.12Z" fill="black"/>
<path d="M232.64 230.73L232.47 230.55C260.14 204.58 276 167.93 276 130.01C276 87.14 256.57 47.45 222.68 21.1L222.83 20.9C239.09 33.54 252.54 49.93 261.73 68.3C271.36 87.56 276.25 108.32 276.25 130.01C276.25 149.43 272.3 168.2 264.51 185.82C256.99 202.84 246.26 217.95 232.64 230.74V230.73Z" fill="black"/>
<path d="M211.73 217.21C210.54 218.69 208.8 219.37 208.03 218.64C207.32 217.97 207.81 216.42 208.96 215.23C210.02 214.13 211.38 213.62 212.13 214.04C212.93 214.48 212.81 215.87 211.73 217.21Z" fill="black"/>
<path d="M194.82 221.37C193.58 222.56 191.86 222.89 190.99 222.11C190.11 221.33 190.4 219.72 191.64 218.53C192.88 217.34 194.6 217.01 195.47 217.79C196.35 218.57 196.06 220.18 194.82 221.37Z" fill="black"/>
<path d="M174.94 215.26C173.67 216.43 171.77 216.61 170.7 215.66C169.63 214.71 169.79 213 171.05 211.83C172.32 210.66 174.22 210.48 175.29 211.43C176.36 212.38 176.2 214.09 174.94 215.26Z" fill="black"/>
<path d="M181.46 247.64C180.41 247.64 179.6 247.35 179.1 246.8C178.7 246.36 178.53 245.76 178.61 245.08C178.79 243.51 180.24 241.61 182.38 240.14C184.27 238.84 186.43 238.06 188.15 238.06C189.2 238.06 190.01 238.35 190.51 238.9C190.91 239.34 191.08 239.93 191 240.62C190.82 242.19 189.37 244.09 187.23 245.56C185.34 246.86 183.18 247.64 181.46 247.64ZM188.15 238.31C186.48 238.31 184.37 239.07 182.52 240.35C180.44 241.79 179.03 243.61 178.86 245.12C178.79 245.74 178.93 246.25 179.28 246.64C179.73 247.13 180.48 247.4 181.45 247.4C183.12 247.4 185.23 246.64 187.08 245.36C189.16 243.92 190.57 242.1 190.74 240.59C190.81 239.97 190.67 239.46 190.32 239.07C189.87 238.58 189.12 238.31 188.15 238.31Z" fill="black"/>
<path d="M185.76 243.91C184.51 244.79 183.08 245.09 182.57 244.58C182.06 244.06 182.66 242.93 183.91 242.04C185.16 241.15 186.59 240.86 187.1 241.37C187.61 241.89 187.01 243.02 185.76 243.91Z" fill="black"/>
<path d="M171.05 233.53C169.83 234.58 168.14 234.75 167.26 233.97C166.43 233.23 166.61 231.86 167.68 230.85C168.78 229.8 170.47 229.47 171.46 230.17C172.5 230.9 172.31 232.44 171.05 233.53Z" fill="black"/>
<path d="M140.26 251.71C137.01 251.74 134.49 249.92 134.64 247.64C134.78 245.36 137.53 243.48 140.78 243.45C144.03 243.42 146.55 245.24 146.4 247.52C146.26 249.8 143.51 251.68 140.26 251.71Z" fill="black"/>
<path d="M129.38 244.63C127.65 244.63 126.09 243.53 125.9 242.16C125.71 240.79 126.96 239.68 128.69 239.68C130.42 239.68 131.98 240.78 132.17 242.15C132.36 243.52 131.11 244.63 129.38 244.63Z" fill="black"/>
<path d="M129.32 246.08C126.26 246.08 123.55 244.22 123.28 241.93C123.17 241 123.46 240.12 124.12 239.38C125.07 238.3 126.65 237.67 128.44 237.65H128.51C131.57 237.65 134.28 239.51 134.55 241.8C134.66 242.73 134.37 243.61 133.71 244.35C132.76 245.43 131.18 246.06 129.39 246.08H129.32ZM128.5 237.91H128.43C126.74 237.93 125.19 238.54 124.3 239.55C123.69 240.24 123.43 241.05 123.53 241.9C123.78 244.06 126.38 245.82 129.32 245.82H129.39C131.08 245.8 132.63 245.19 133.52 244.18C134.13 243.49 134.39 242.68 134.29 241.83C134.04 239.67 131.44 237.91 128.5 237.91Z" fill="black"/>
<path d="M162.35 265.38C161.18 265.72 160.2 265.87 160.16 265.7C160.12 265.54 161.03 265.12 162.2 264.78C163.37 264.44 164.35 264.29 164.39 264.46C164.43 264.62 163.52 265.04 162.35 265.38Z" fill="black"/>
<path d="M143.89 265.78C143.92 266.09 143.33 266.41 142.57 266.49C141.81 266.57 141.16 266.38 141.13 266.07C141.1 265.76 141.69 265.44 142.45 265.36C143.21 265.28 143.86 265.47 143.89 265.78Z" fill="black"/>
<path d="M125.01 266.06C124.12 266.06 123.12 265.92 122.11 265.67C119.18 264.92 117.07 263.42 117.32 262.24C117.47 261.5 118.52 261.07 120.11 261.07C121 261.07 122 261.21 123.01 261.46C125.94 262.21 128.05 263.71 127.8 264.89C127.65 265.63 126.6 266.06 125.01 266.06ZM120.11 261.31C118.67 261.31 117.69 261.68 117.57 262.28C117.36 263.29 119.47 264.73 122.18 265.42C123.17 265.67 124.15 265.8 125.02 265.8C126.46 265.8 127.44 265.43 127.56 264.83C127.77 263.82 125.66 262.38 122.95 261.69C121.96 261.44 120.98 261.31 120.11 261.31Z" fill="black"/>
<path d="M125.27 264.51C125.14 265.02 123.87 265.11 122.43 264.72C120.99 264.33 119.92 263.61 120.05 263.1C120.18 262.59 121.45 262.5 122.89 262.88C124.33 263.27 125.4 263.99 125.27 264.5V264.51Z" fill="black"/>
<path d="M119.84 266.85C119 266.85 117.75 266.67 116.42 266.37C114.94 266.03 112.17 265.21 112.31 264.54C112.36 264.31 112.69 264.2 113.36 264.2C114.2 264.2 115.45 264.38 116.79 264.68C118.27 265.02 121.04 265.84 120.9 266.51C120.85 266.74 120.52 266.85 119.85 266.85H119.84ZM113.34 264.46C112.61 264.46 112.54 264.6 112.54 264.6C112.5 264.8 113.84 265.53 116.46 266.13C117.76 266.43 119.02 266.61 119.83 266.61C120.56 266.61 120.63 266.47 120.63 266.47C120.67 266.27 119.33 265.54 116.71 264.94C115.41 264.64 114.15 264.46 113.34 264.46Z" fill="black"/>
<path d="M119.38 266.14C119.31 266.39 118.07 266.31 116.63 265.96C115.18 265.61 114.06 265.13 114.14 264.88C114.21 264.63 115.44 264.71 116.89 265.06C118.34 265.41 119.46 265.89 119.38 266.14Z" fill="black"/>
<path d="M142.72 208.3C142.75 205.87 145.12 203.89 148 203.89C150.88 203.89 153.19 205.86 153.16 208.3C153.13 210.73 150.76 212.71 147.88 212.71C145 212.71 142.69 210.74 142.72 208.3Z" fill="black"/>
<path d="M147.37 217.25H147.32C144.43 217.24 141.72 216.12 139.88 214.19C138.3 212.52 137.49 210.37 137.6 208.14C137.85 203.17 142.59 199.13 148.16 199.13H148.21C151.1 199.14 153.81 200.26 155.65 202.19C157.23 203.86 158.04 206.01 157.93 208.24C157.68 213.21 152.94 217.25 147.37 217.25ZM148.17 199.37C142.73 199.37 138.1 203.31 137.86 208.15C137.75 210.31 138.54 212.39 140.07 214.01C141.86 215.89 144.5 216.98 147.33 216.99H147.38C152.82 216.99 157.45 213.05 157.69 208.21C157.8 206.05 157.01 203.97 155.48 202.35C153.69 200.46 151.05 199.38 148.22 199.37H148.17Z" fill="black"/>
<path d="M119.72 223.86C119.74 222.5 121.06 221.39 122.68 221.39C124.3 221.39 125.59 222.49 125.57 223.86C125.55 225.22 124.23 226.33 122.61 226.33C120.99 226.33 119.7 225.23 119.72 223.86Z" fill="black"/>
<path d="M129.92 192.95C129.94 191.51 131.19 190.34 132.71 190.32C134.24 190.3 135.46 191.45 135.44 192.89C135.42 194.33 134.17 195.5 132.65 195.52C131.12 195.54 129.9 194.39 129.92 192.95Z" fill="black"/>
<path d="M150.54 165.79C150.79 163.9 152.62 162.5 154.62 162.66C156.63 162.82 158.05 164.49 157.8 166.38C157.55 168.27 155.72 169.67 153.72 169.51C151.71 169.35 150.29 167.68 150.54 165.79Z" fill="black"/>
<path d="M108.43 262.19C108.54 261.95 109.38 262.06 110.3 262.44C111.22 262.82 111.88 263.32 111.77 263.57C111.66 263.81 110.82 263.7 109.9 263.32C108.98 262.94 108.32 262.44 108.43 262.19Z" fill="black"/>
<path d="M104 261.98C104.11 261.75 105.15 261.96 106.13 262.36C106.95 262.7 107.51 263.09 107.5 263.28C107.49 263.48 106.85 263.45 105.95 263.15C104.85 262.79 103.88 262.22 104 261.98Z" fill="black"/>
<path d="M109.98 257.17C110.99 257.66 111.56 258.31 111.33 258.66C111.11 259 110.14 258.96 109.1 258.52C107.97 258.05 107.18 257.3 107.44 256.89C107.7 256.48 108.88 256.63 109.97 257.16L109.98 257.17Z" fill="black"/>
<path d="M111.22 259.57C110.52 259.57 109.67 259.38 108.83 259.04C107.46 258.48 106.38 257.62 106.15 256.9C106.07 256.65 106.09 256.42 106.21 256.22C106.42 255.89 106.87 255.72 107.54 255.72C108.37 255.72 109.45 256 110.43 256.47C111.61 257.04 112.45 257.8 112.63 258.44C112.7 258.68 112.67 258.89 112.56 259.07C112.36 259.38 111.88 259.56 111.23 259.56L111.22 259.57ZM107.54 255.98C106.98 255.98 106.58 256.12 106.42 256.36C106.34 256.49 106.33 256.65 106.38 256.83C106.59 257.47 107.63 258.29 108.92 258.82C109.73 259.15 110.54 259.33 111.21 259.33C111.77 259.33 112.18 259.19 112.33 258.96C112.41 258.84 112.42 258.7 112.37 258.53C112.21 257.96 111.4 257.25 110.3 256.72C109.36 256.26 108.32 255.99 107.52 255.99L107.54 255.98Z" fill="black"/>
<path d="M108.72 253.55C109.62 254.11 109.99 254.77 109.72 255.14C109.44 255.51 108.52 255.55 107.48 255.16C106.15 254.66 105.13 253.68 105.58 253.12C106.03 252.56 107.58 252.85 108.72 253.56V253.55Z" fill="black"/>
<path d="M92.23 257.63C93.37 258.19 94.2 258.81 94.08 259.02C93.96 259.23 92.94 258.95 91.8 258.39C90.66 257.83 89.83 257.21 89.95 257C90.07 256.79 91.09 257.07 92.23 257.63Z" fill="black"/>
<path d="M87.7 257.77C90.41 258.98 92.51 260.14 92.39 260.35C92.27 260.56 89.98 259.75 87.27 258.53C84.56 257.32 82.46 256.16 82.58 255.95C82.7 255.74 84.99 256.55 87.7 257.77Z" fill="black"/>
<path d="M79.51 254.1C80.21 254.45 80.76 254.83 80.74 254.95C80.72 255.07 80.13 254.88 79.43 254.53C78.73 254.18 78.18 253.8 78.2 253.68C78.22 253.56 78.81 253.75 79.51 254.1Z" fill="black"/>
<path d="M73.64 242.48C75.48 243.91 76.54 245.39 76.13 245.88C75.71 246.39 73.87 245.75 71.89 244.35C69.73 242.82 68.3 241.03 68.87 240.5C69.43 239.98 71.63 240.93 73.64 242.48Z" fill="black"/>
<path d="M70.91 240.41C71.68 241.01 72.12 241.62 71.94 241.83C71.76 242.04 71 241.78 70.18 241.19C69.28 240.55 68.69 239.81 68.93 239.59C69.16 239.37 70.08 239.77 70.91 240.41Z" fill="black"/>
<path d="M77.36 247.73C76.09 247.73 73.79 246.66 71.5 245.01C68.69 242.98 66.68 240.7 66.6 239.45C66.58 239.17 66.66 238.95 66.83 238.79C67.01 238.62 67.28 238.54 67.64 238.54C69.07 238.54 71.83 239.93 74.36 241.93C76.68 243.77 78.26 245.68 78.38 246.8C78.41 247.06 78.35 247.28 78.22 247.44C78.05 247.64 77.76 247.75 77.37 247.75L77.36 247.73ZM67.63 238.78C67.34 238.78 67.13 238.84 67 238.97C66.88 239.08 66.83 239.23 66.85 239.43C66.92 240.59 68.94 242.85 71.65 244.8C73.9 246.43 76.15 247.48 77.36 247.48C77.68 247.48 77.9 247.41 78.02 247.26C78.11 247.15 78.14 247 78.12 246.81C78.01 245.77 76.44 243.88 74.2 242.11C71.72 240.15 69.02 238.77 67.64 238.77L67.63 238.78Z" fill="black"/>
<path d="M94.03 242.06C91.01 240.07 89.65 237.17 90.82 235.51C91.96 233.89 95.2 233.93 98.21 235.67C101.39 237.5 103.22 240.56 102.09 242.44C100.93 244.37 97.24 244.16 94.04 242.06H94.03Z" fill="black"/>
<path d="M66.42 227.19C65.23 227.19 63.61 226.28 62.29 224.86C60.49 222.93 59.82 220.7 60.78 219.79C61.05 219.53 61.41 219.4 61.87 219.4C62.96 219.4 64.41 220.15 65.66 221.37C67.64 223.28 68.5 225.68 67.59 226.72C67.32 227.03 66.91 227.19 66.41 227.19H66.42ZM61.87 219.65C61.48 219.65 61.17 219.76 60.95 219.97C60.11 220.77 60.79 222.89 62.47 224.69C63.74 226.05 65.29 226.94 66.42 226.94C66.85 226.94 67.18 226.81 67.41 226.55C68.22 225.63 67.34 223.34 65.49 221.55C64.28 220.38 62.9 219.65 61.87 219.65Z" fill="black"/>
<path d="M48.72 199.93C46.95 197.32 46.78 194.37 48.23 193.25C49.65 192.15 52.21 193.13 54.05 195.52C56 198.05 56.49 201.26 55 202.58C53.47 203.94 50.6 202.7 48.72 199.93Z" fill="black"/>
<path d="M51.09 179.47C49.83 177.49 49.86 175.18 51.06 174.24C52.24 173.31 54.2 173.96 55.52 175.76C56.92 177.66 57.13 180.16 55.88 181.28C54.6 182.42 52.41 181.57 51.08 179.48L51.09 179.47Z" fill="black"/>
<path d="M55.14 184.17C53.23 184.17 51.07 182.73 49.65 180.49C47.66 177.36 47.66 173.69 49.64 172.12C50.21 171.67 50.92 171.43 51.7 171.43C53.45 171.43 55.41 172.62 56.81 174.52C59.09 177.61 59.34 181.57 57.36 183.33C56.75 183.87 55.98 184.16 55.13 184.16L55.14 184.17ZM51.7 171.69C50.97 171.69 50.33 171.9 49.8 172.32C47.95 173.78 47.98 177.38 49.87 180.36C51.25 182.52 53.32 183.92 55.15 183.92C55.94 183.92 56.65 183.66 57.21 183.15C59.09 181.47 58.83 177.67 56.62 174.67C55.26 172.82 53.38 171.68 51.71 171.68L51.7 171.69Z" fill="black"/>
<path d="M62.98 224.27C61.82 223.03 61.4 221.61 61.98 221.05C62.55 220.51 63.9 220.95 65.08 222.09C66.32 223.29 66.92 224.84 66.35 225.49C65.76 226.16 64.22 225.59 62.99 224.27H62.98Z" fill="black"/>
<path d="M77.19 218.8C75.44 217.4 74.71 215.14 75.65 213.86C76.56 212.62 78.64 212.9 80.22 214.37C81.71 215.76 82.26 217.76 81.51 218.94C80.74 220.14 78.84 220.12 77.19 218.8Z" fill="black"/>
<path d="M54.24 224.32C53.38 224.32 52.02 223.47 50.77 222.14C49.12 220.39 48.33 218.51 48.98 217.87C49.12 217.73 49.32 217.65 49.58 217.65C50.42 217.65 51.76 218.47 52.98 219.74C54.63 221.46 55.46 223.35 54.89 224.04C54.74 224.22 54.53 224.31 54.25 224.31L54.24 224.32ZM49.58 217.91C49.4 217.91 49.26 217.96 49.16 218.05C48.69 218.52 49.3 220.21 50.96 221.98C52.14 223.23 53.46 224.08 54.25 224.08C54.45 224.08 54.6 224.02 54.7 223.9C55.13 223.38 54.47 221.66 52.8 219.93C51.64 218.72 50.35 217.91 49.59 217.91H49.58Z" fill="black"/>
<path d="M31.79 204.58C30.26 202.21 29.57 199.89 30.22 199.39C30.86 198.9 32.57 200.33 34.07 202.61C35.59 204.92 36.35 207.29 35.75 207.88C35.13 208.48 33.35 207 31.79 204.59V204.58Z" fill="black"/>
<path d="M27.14 192.5C26.06 190.51 25.77 188.56 26.47 188.12C27.16 187.69 28.55 188.88 29.61 190.79C30.68 192.73 31.04 194.72 30.37 195.23C29.69 195.75 28.23 194.52 27.14 192.5Z" fill="black"/>
<path d="M20.96 179.09C20.09 177.06 19.99 175.13 20.72 174.75C21.44 174.38 22.7 175.64 23.57 177.59C24.45 179.56 24.6 181.54 23.89 181.99C23.17 182.45 21.84 181.14 20.96 179.08V179.09Z" fill="black"/>
<path d="M14.82 161.09C14.31 158.98 14.54 157.14 15.28 156.76C16 156.39 17.05 157.51 17.7 159.44C18.43 161.61 18.41 164.03 17.55 164.59C16.66 165.17 15.4 163.47 14.82 161.09Z" fill="black"/>
<path d="M7.29 167.82C6.4 164.79 6.16 162.24 6.74 162.2C7.3 162.17 8.41 164.48 9.21 167.3C9.99 170.05 10.23 172.41 9.76 172.65C9.26 172.9 8.16 170.77 7.3 167.82H7.29Z" fill="black"/>
<path d="M37.79 197.99C37.18 197.07 37 196.05 37.36 195.69C37.72 195.34 38.49 195.77 39.09 196.64C39.7 197.53 39.92 198.57 39.57 198.96C39.21 199.36 38.41 198.92 37.79 197.99Z" fill="black"/>
<path d="M22.31 189.28C21.76 188.36 21.55 187.42 21.83 187.16C22.11 186.91 22.76 187.42 23.3 188.3C23.85 189.19 24.09 190.16 23.82 190.44C23.55 190.73 22.87 190.21 22.31 189.28Z" fill="black"/>
<path d="M6.79001 174.2C6.45001 173.2 6.41001 172.23 6.69001 172.02C6.96001 171.82 7.45001 172.43 7.78001 173.39C8.12001 174.37 8.18001 175.36 7.91001 175.6C7.64001 175.85 7.13001 175.22 6.78001 174.2H6.79001Z" fill="black"/>
<path d="M9.79001 181.61C9.45001 180.61 9.41001 179.64 9.69001 179.43C9.96001 179.23 10.45 179.84 10.78 180.8C11.12 181.78 11.18 182.77 10.91 183.01C10.64 183.26 10.13 182.63 9.78001 181.61H9.79001Z" fill="black"/>
<path d="M31.26 198.32C29.79 198.32 27.63 196.22 26.01 193.21C24.02 189.51 23.53 185.89 24.9 184.95C25.11 184.81 25.36 184.73 25.63 184.73C27.07 184.73 29.19 186.76 30.8 189.67C32.81 193.31 33.37 196.98 32.09 198.03C31.86 198.22 31.58 198.31 31.26 198.31V198.32ZM25.63 184.98C25.41 184.98 25.21 185.04 25.04 185.15C23.81 185.99 24.36 189.62 26.23 193.08C27.81 196.01 29.88 198.06 31.26 198.06C31.52 198.06 31.74 197.98 31.93 197.83C33.11 196.87 32.5 193.26 30.58 189.78C29.02 186.95 26.98 184.97 25.63 184.97V184.98Z" fill="black"/>
<path d="M31.81 215.94C30.32 214.02 29.34 212.3 29.61 212.09C29.87 211.88 31.24 213.19 32.69 215.04C34.16 216.92 35.19 218.68 34.97 218.97C34.75 219.26 33.32 217.89 31.81 215.94Z" fill="black"/>
<path d="M51.3 221.53C50.58 220.78 50.23 219.95 50.52 219.67C50.81 219.39 51.59 219.74 52.3 220.45C53.02 221.17 53.4 222.02 53.13 222.33C52.86 222.65 52.04 222.29 51.3 221.53Z" fill="black"/>
<path d="M55.26 232.79C53.77 231.37 52.96 229.89 53.42 229.47C53.87 229.06 55.39 229.81 56.84 231.17C58.31 232.55 59.19 234.06 58.78 234.53C58.36 235.01 56.78 234.23 55.27 232.79H55.26Z" fill="black"/>
<path d="M60.23 240.2C59.14 239.25 58.46 238.32 58.71 238.1C58.95 237.89 59.99 238.44 61.06 239.35C62.14 240.27 62.85 241.23 62.64 241.48C62.43 241.74 61.34 241.16 60.23 240.2Z" fill="black"/>
<path d="M64.44 243.23C63.6 243.23 61.6 242.09 59.59 240.47C57.62 238.88 56.23 237.29 56.22 236.6C56.22 236.44 56.29 236.34 56.34 236.29C56.42 236.22 56.54 236.18 56.7 236.18C57.53 236.18 59.48 237.29 61.46 238.87C63.5 240.51 64.93 242.13 64.92 242.83C64.92 243 64.84 243.09 64.78 243.14C64.7 243.2 64.58 243.23 64.44 243.23ZM56.7 236.43C56.61 236.43 56.54 236.45 56.51 236.48C56.49 236.5 56.47 236.53 56.47 236.6C56.48 237.11 57.63 238.57 59.75 240.28C61.69 241.85 63.66 242.98 64.44 242.98C64.52 242.98 64.59 242.97 64.63 242.94C64.65 242.93 64.68 242.9 64.68 242.82C64.68 242.31 63.51 240.82 61.32 239.06C59.41 237.53 57.48 236.42 56.71 236.42L56.7 236.43Z" fill="black"/>
<path d="M45.81 231.78C44.38 230.43 43.46 229.29 43.74 229.23C44.02 229.17 45.42 230.23 46.87 231.6C48.34 232.99 49.29 234.16 48.99 234.2C48.68 234.24 47.26 233.15 45.81 231.78Z" fill="black"/>
<path d="M52.26 238C50.39 236.51 49.05 235.22 49.25 235.1C49.46 234.98 51.15 236.11 53.06 237.62C54.99 239.15 56.37 240.48 56.13 240.58C55.89 240.67 54.15 239.51 52.26 238Z" fill="black"/>
<path d="M70.54 247.88C71.26 248.36 71.71 248.84 71.61 248.97C71.5 249.11 70.85 248.86 70.09 248.39C69.26 247.87 68.66 247.29 68.81 247.15C68.96 247.01 69.76 247.36 70.54 247.88Z" fill="black"/>
<path d="M68.32 247.87C69.45 248.57 70.26 249.21 70.21 249.36C70.16 249.51 69.23 249.12 68.06 248.42C66.77 247.66 65.73 246.87 65.83 246.71C65.93 246.56 67.09 247.1 68.32 247.86V247.87Z" fill="black"/>
<path d="M47.61 230.34C46.92 229.66 46.49 229.08 46.64 229.03C46.79 228.98 47.48 229.5 48.18 230.19C48.89 230.89 49.34 231.49 49.17 231.53C49.01 231.57 48.3 231.03 47.61 230.34Z" fill="black"/>
<path d="M23.67 203.63C22.54 201.82 21.95 200.19 22.33 199.97C22.7 199.75 23.88 200.96 24.98 202.7C26.09 204.46 26.73 206.14 26.39 206.43C26.04 206.73 24.81 205.46 23.67 203.63Z" fill="black"/>
<path d="M72.06 158.76C71.16 156.44 72.03 153.9 74.01 153.09C75.99 152.28 78.33 153.49 79.23 155.81C80.13 158.13 79.26 160.67 77.28 161.48C75.3 162.29 72.96 161.08 72.06 158.76Z" fill="black"/>
<path d="M25.77 124.97C25.81 121.79 27.44 119.19 29.41 119.17C31.38 119.15 32.94 121.71 32.9 124.89C32.86 128.07 31.23 130.67 29.26 130.69C27.29 130.71 25.73 128.15 25.77 124.97Z" fill="black"/>
<path d="M21.44 82.69C22.06 80.59 23.4 78.85 24.45 78.79C25.49 78.73 25.84 80.38 25.22 82.48C24.6 84.58 23.26 86.32 22.21 86.38C21.17 86.44 20.82 84.79 21.44 82.69Z" fill="black"/>
<path d="M31.46 49.55C32.71 47.76 34.18 46.35 34.74 46.4C35.3 46.45 34.74 47.94 33.48 49.73C32.23 51.52 30.76 52.93 30.2 52.88C29.64 52.83 30.2 51.34 31.46 49.55Z" fill="black"/>
<path d="M71.46 23.33C72.8 22.04 74.57 21.14 75.37 21.46C76.24 21.81 75.48 23.39 73.78 24.82C72.25 26.1 70.67 26.64 70.16 26.16C69.69 25.72 70.25 24.5 71.47 23.33H71.46Z" fill="black"/>
<path d="M70.28 11.9C71.83 10.82 73.6 9.88998 74.14 9.90998C74.72 9.93998 73.53 11.08 71.63 12.32C69.92 13.44 68.44 14.11 68.2 13.92C67.97 13.75 68.87 12.88 70.29 11.9H70.28Z" fill="black"/>
<path d="M7.00001 91.06C7.60001 88.96 8.42001 87.05 8.82001 86.8C9.22001 86.55 9.06001 88.05 8.46001 90.15C7.86001 92.25 7.04001 94.16 6.64001 94.41C6.24001 94.66 6.40001 93.16 7.00001 91.06Z" fill="black"/>
<path d="M5.83998 97.55C5.76998 97.55 5.65999 97.53 5.56998 97.41C5.07998 96.76 5.70998 93.51 6.49998 90.76C7.50998 87.24 8.80998 84.3 9.52998 83.93C9.59998 83.9 9.65999 83.88 9.71999 83.88C9.78999 83.88 9.89998 83.9 9.97998 84.02C10.43 84.6 9.96999 87.23 9.38999 89.49C8.48998 92.97 6.95998 97.02 6.03998 97.5C5.96998 97.53 5.90998 97.55 5.83998 97.55ZM9.71999 84.18C9.71999 84.18 9.69999 84.18 9.66998 84.2C9.11998 84.48 7.85998 87.11 6.78998 90.85C5.78998 94.33 5.50998 96.83 5.80998 97.24C5.84998 97.3 5.84998 97.28 5.90998 97.24C6.63998 96.86 8.13998 93.21 9.10998 89.42C9.87998 86.44 10.02 84.54 9.75998 84.2C9.73998 84.18 9.72998 84.18 9.72998 84.18H9.71999Z" fill="black"/>
<path d="M53.45 83.79C54.56 81.71 56.65 80.72 58.13 81.57C59.61 82.42 59.9 84.79 58.79 86.87C57.68 88.95 55.59 89.94 54.11 89.09C52.63 88.24 52.34 85.87 53.45 83.79Z" fill="black"/>
<path d="M29.85 141.83C27.9 141.83 26.01 140.96 24.39 139.32C21.34 136.23 19.57 130.86 19.65 124.95C19.78 115.55 24.61 107.82 30.41 107.73H30.52C32.47 107.73 34.36 108.6 35.97 110.24C39.02 113.33 40.79 118.7 40.71 124.61C40.58 134.01 35.75 141.74 29.95 141.83H29.84H29.85ZM30.53 107.98H30.42C24.75 108.08 20.03 115.69 19.9 124.96C19.82 130.8 21.57 136.1 24.57 139.15C26.14 140.74 27.97 141.58 29.85 141.58H29.96C35.63 141.48 40.35 133.87 40.48 124.6C40.56 118.76 38.81 113.46 35.81 110.41C34.24 108.82 32.41 107.98 30.53 107.98Z" fill="black"/>
<path d="M28.59 145.01C28.18 142.65 28.99 140.5 30.39 140.22C31.79 139.94 33.26 141.63 33.67 144C34.08 146.36 33.27 148.51 31.87 148.79C30.47 149.07 29 147.38 28.59 145.01Z" fill="black"/>
<path d="M32.19 153.6C29.28 153.6 26.49 150.15 25.7 145.58C24.84 140.58 26.66 136.02 29.76 135.41C29.99 135.36 30.23 135.34 30.47 135.34C33.38 135.34 36.17 138.79 36.96 143.36C37.82 148.36 36 152.92 32.9 153.53C32.67 153.58 32.43 153.6 32.19 153.6ZM30.48 135.59C30.26 135.59 30.04 135.61 29.82 135.65C26.85 136.24 25.12 140.67 25.95 145.54C26.72 149.99 29.4 153.35 32.19 153.35C32.41 153.35 32.63 153.33 32.85 153.28C35.82 152.69 37.55 148.26 36.72 143.39C35.95 138.94 33.27 135.58 30.48 135.58V135.59Z" fill="black"/>
<path d="M9.49999 150.85C7.71999 150.85 5.96999 146.8 5.50999 141.63C5.03999 136.25 6.10999 131.87 7.94999 131.66C9.77999 131.44 11.61 135.57 12.07 140.88C12.54 146.26 11.47 150.64 9.62999 150.85C9.57999 150.85 9.53999 150.85 9.48999 150.85H9.49999ZM8.08999 131.84C8.08999 131.84 8.00999 131.84 7.96999 131.84C6.26999 132.04 5.24999 136.42 5.70999 141.6C6.15999 146.7 7.93999 150.84 9.61999 150.64C11.32 150.44 12.34 146.06 11.88 140.88C11.44 135.89 9.73999 131.83 8.08999 131.83V131.84Z" fill="black"/>
<path d="M7.86 141.55C7.75 140.41 7.98 139.43 8.37 139.38C8.76 139.33 9.17 140.21 9.28 141.36C9.39 142.5 9.16 143.48 8.77 143.53C8.38 143.58 7.97 142.7 7.86 141.55Z" fill="black"/>
<path d="M3.18 128.71C3.2 127.64 3.39 126.78 3.61 126.78C3.83 126.78 3.99 127.64 3.97 128.71C3.95 129.78 3.76 130.64 3.54 130.64C3.32 130.64 3.16 129.78 3.18 128.71Z" fill="black"/>
<path d="M0.310005 122.39C0.340005 121.26 0.580005 120.16 0.850005 120.06C1.14001 119.96 1.29001 121.01 1.20001 122.25C1.12001 123.34 0.870005 124.14 0.640005 124.13C0.430005 124.13 0.280005 123.39 0.310005 122.39Z" fill="black"/>
<path d="M1.08999 128.69C1.08999 127.74 1.18999 126.99 1.31999 126.92C1.44999 126.85 1.58999 127.51 1.61999 128.5C1.65999 129.61 1.54999 130.64 1.37999 130.66C1.21999 130.68 1.08999 129.75 1.07999 128.69H1.08999Z" fill="black"/>
<path d="M2.16 148.05C2.05 147.07 2.13 146.28 2.33 146.3C2.53 146.32 2.78 147.13 2.89 148.11C3 149.09 2.92 149.88 2.72 149.86C2.52 149.84 2.27 149.03 2.16 148.05Z" fill="black"/>
<path d="M3.06001 152.93C2.57001 152.9 2.10001 150.06 1.91001 148.16C1.70001 146.11 1.65001 143.85 1.97001 143.5C2.01001 143.45 2.06001 143.44 2.09001 143.44C2.58001 143.47 3.05001 146.31 3.25001 148.21C3.46001 150.26 3.51001 152.51 3.19001 152.87C3.15001 152.92 3.10001 152.93 3.07001 152.93H3.06001ZM2.08001 143.58C2.08001 143.58 2.06001 143.59 2.06001 143.6C1.84001 143.84 1.77001 145.61 2.04001 148.16C2.34001 151.02 2.84001 152.8 3.07001 152.81C3.07001 152.81 3.09001 152.8 3.09001 152.79C3.31001 152.55 3.38001 150.78 3.11001 148.23C2.81001 145.37 2.31001 143.59 2.08001 143.58Z" fill="black"/>
<path d="M4.88001 160.18C4.66001 159.06 4.64001 158.16 4.85001 158.17C5.06001 158.18 5.40001 159.1 5.63001 160.22C5.85001 161.34 5.87001 162.24 5.66001 162.23C5.45001 162.22 5.11001 161.3 4.88001 160.18Z" fill="black"/>
<path d="M10.99 140.42C10.88 139.28 11.17 138.31 11.64 138.27C12.11 138.22 12.58 139.12 12.69 140.26C12.8 141.4 12.51 142.37 12.04 142.41C11.57 142.46 11.1 141.56 10.99 140.42Z" fill="black"/>
<path d="M161.5 194.78C162.02 188.98 167.2 184.37 173.06 184.28C180.25 184.17 184.02 188.74 183.5 194.54C182.98 200.34 177.05 205.28 171.19 205.28C165.33 205.28 160.98 200.58 161.5 194.78Z" fill="black"/>
<path d="M251.7 189.17C253.92 184.66 254.16 180.23 252.24 179.28C250.32 178.33 246.96 181.23 244.73 185.74C242.5 190.25 242.27 194.68 244.19 195.63C246.11 196.58 249.47 193.68 251.7 189.17Z" fill="black"/>
<path d="M228.49 177.79C229.56 175.59 229.19 173.21 227.68 172.47C226.16 171.73 224.07 172.92 223 175.12C221.93 177.32 222.3 179.7 223.81 180.44C225.33 181.18 227.42 179.99 228.49 177.79Z" fill="black"/>
<path d="M224.78 180.78C224.41 180.78 224.07 180.7 223.75 180.55C222.17 179.78 221.78 177.32 222.88 175.07C223.73 173.31 225.27 172.13 226.7 172.13C227.07 172.13 227.41 172.21 227.73 172.36C229.31 173.13 229.7 175.59 228.6 177.84C227.75 179.6 226.21 180.78 224.78 180.78ZM226.7 172.38C225.36 172.38 223.92 173.5 223.1 175.18C222.06 177.31 222.4 179.63 223.86 180.33C224.14 180.47 224.45 180.54 224.78 180.54C226.12 180.54 227.56 179.42 228.38 177.74C229.42 175.61 229.08 173.29 227.62 172.59C227.34 172.45 227.03 172.38 226.7 172.38Z" fill="black"/>
<path d="M273.86 155.15C274.53 151.48 275.06 147.76 275.44 143.99C274.69 147.05 273.99 151.01 273.86 155.15Z" fill="black"/>
<path d="M273.98 155.18L273.73 155.15C273.87 150.66 274.67 146.59 275.31 143.96L275.56 144C275.19 147.7 274.66 151.46 273.98 155.17V155.18ZM275.08 146.13C274.68 148.09 274.29 150.49 274.09 153.11C274.48 150.79 274.81 148.45 275.08 146.13Z" fill="black"/>
<path d="M233.34 136.5C233.34 131.37 236.13 127.02 239.66 126.79C243.28 126.55 246.28 130.7 246.28 136.07C246.28 141.44 243.28 145.79 239.66 145.79C236.04 145.79 233.34 141.63 233.34 136.5Z" fill="black"/>
<path d="M239.16 149.68C234.15 149.68 230.22 143.99 230.22 136.72C230.22 129.45 234.14 123.4 239.15 122.92C239.36 122.9 239.56 122.89 239.77 122.89C244.78 122.89 248.7 128.58 248.7 135.85C248.7 143.48 244.42 149.68 239.16 149.68ZM239.77 123.14C239.57 123.14 239.37 123.14 239.17 123.17C234.37 123.63 230.47 129.71 230.47 136.72C230.47 143.73 234.37 149.43 239.16 149.43C244.28 149.43 248.45 143.34 248.45 135.85C248.45 128.36 244.64 123.14 239.77 123.14Z" fill="black"/>
<path d="M250.55 137.07C250.55 135.77 251.14 134.73 251.87 134.73C252.6 134.73 253.19 135.78 253.19 137.07C253.19 138.36 252.6 139.41 251.87 139.41C251.14 139.41 250.55 138.36 250.55 137.07Z" fill="black"/>
<path d="M251.78 142.13C250.17 142.13 248.87 139.86 248.87 137.07C248.87 134.28 250.18 132.01 251.78 132.01C253.38 132.01 254.69 134.28 254.69 137.07C254.69 139.86 253.38 142.13 251.78 142.13ZM251.78 132.24C250.31 132.24 249.11 134.4 249.11 137.07C249.11 139.74 250.31 141.9 251.78 141.9C253.25 141.9 254.46 139.74 254.46 137.07C254.46 134.4 253.26 132.24 251.78 132.24Z" fill="black"/>
<path d="M262.59 153.42C261.95 153.42 261.35 153.13 260.82 152.55C259.22 150.81 258.42 146.75 258.8 142.2C259.31 136.02 261.83 131 264.43 131C265.07 131 265.67 131.29 266.2 131.87C267.8 133.61 268.6 137.67 268.22 142.22C267.71 148.4 265.18 153.42 262.59 153.42ZM264.43 131.25C261.97 131.25 259.56 136.17 259.06 142.22C258.69 146.7 259.46 150.68 261.02 152.38C261.5 152.9 262.04 153.17 262.6 153.17C265.06 153.17 267.47 148.25 267.97 142.2C268.34 137.72 267.57 133.74 266.01 132.04C265.53 131.52 264.99 131.25 264.43 131.25Z" fill="black"/>
<path d="M261.32 142.32C261.58 139.17 262.84 136.62 264.13 136.63C265.43 136.63 266.27 139.18 266.01 142.33C265.75 145.48 264.49 148.03 263.2 148.02C261.91 148.01 261.06 145.47 261.32 142.32Z" fill="black"/>
<path d="M256.45 164.71C256.19 165.85 255.49 166.75 254.89 166.73C254.29 166.71 254.01 165.77 254.27 164.64C254.53 163.5 255.23 162.6 255.83 162.62C256.43 162.64 256.71 163.58 256.45 164.71Z" fill="black"/>
<path d="M259.15 193.83C258.58 194.95 257.99 195.78 257.82 195.7C257.65 195.62 257.97 194.64 258.54 193.52C259.11 192.4 259.7 191.57 259.87 191.65C260.04 191.73 259.72 192.71 259.15 193.83Z" fill="black"/>
<path d="M251.94 110.54C251.24 106.67 252.24 103.21 254.18 102.79C256.12 102.38 258.26 105.17 258.96 109.04C259.66 112.91 258.66 116.37 256.72 116.79C254.78 117.2 252.64 114.41 251.94 110.54Z" fill="black"/>
<path d="M242.63 101.82C242.26 100.53 242.51 99.32 243.19 99.12C243.87 98.93 244.72 99.82 245.09 101.11C245.46 102.4 245.21 103.61 244.53 103.81C243.85 104 243 103.11 242.63 101.82Z" fill="black"/>
<path d="M269.9 89.48C270.42 91.51 270.63 93.21 270.36 93.28C270.09 93.35 269.45 91.76 268.93 89.73C268.41 87.7 268.2 86 268.47 85.93C268.74 85.86 269.38 87.45 269.9 89.48Z" fill="black"/>
<path d="M215.07 114.68C214.81 112.08 216.36 109.96 218.51 110.03C220.63 110.1 222.42 112.27 222.55 114.8C222.67 117.24 221.17 119.16 219.19 119.16C217.21 119.16 215.33 117.19 215.08 114.68H215.07Z" fill="black"/>
<path d="M219.07 123.05C215.36 123.05 212.1 119.39 211.8 114.89C211.63 112.36 212.41 109.98 213.92 108.36C215.13 107.07 216.74 106.38 218.41 106.43C222.11 106.55 225.3 110.29 225.51 114.77C225.61 116.91 225.04 118.94 223.89 120.49C222.73 122.05 221.12 122.96 219.34 123.05C219.25 123.05 219.16 123.05 219.07 123.05ZM218.23 106.69C216.69 106.69 215.23 107.35 214.11 108.54C212.64 110.11 211.9 112.42 212.06 114.88C212.35 119.25 215.49 122.8 219.07 122.8C219.16 122.8 219.24 122.8 219.33 122.8C221.03 122.72 222.58 121.85 223.69 120.35C224.8 118.85 225.36 116.87 225.26 114.79C225.05 110.44 221.97 106.81 218.4 106.7C218.34 106.7 218.28 106.7 218.22 106.7L218.23 106.69Z" fill="black"/>
<path d="M243.38 55.34C245.35 58.18 246.25 61.19 245.21 61.81C244.17 62.42 241.74 60.33 239.94 57.39C238.29 54.71 237.77 52.28 238.65 51.75C239.53 51.23 241.58 52.75 243.38 55.34Z" fill="black"/>
<path d="M245.36 66.0801C244.79 65.0001 244.63 63.9601 245 63.7601C245.37 63.5601 246.14 64.28 246.71 65.36C247.28 66.44 247.44 67.48 247.07 67.68C246.7 67.88 245.93 67.1601 245.36 66.0801Z" fill="black"/>
<path d="M251.94 64.8C251.4 63.77 251.24 62.91 251.53 62.78C251.82 62.66 252.47 63.28 253.04 64.24C253.67 65.3 253.98 66.39 253.66 66.58C253.34 66.78 252.54 65.93 251.94 64.8Z" fill="black"/>
<path d="M158.24 122.33C158.24 119.71 160.36 117.59 162.98 117.59C165.6 117.59 167.72 119.71 167.72 122.33C167.72 124.95 165.6 127.07 162.98 127.07C160.36 127.07 158.24 124.95 158.24 122.33Z" fill="black"/>
<path d="M95.74 147.08C95.74 144.46 97.73 142.34 100.19 142.34C102.65 142.34 104.64 144.46 104.64 147.08C104.64 149.7 102.65 151.82 100.19 151.82C97.73 151.82 95.74 149.7 95.74 147.08Z" fill="black"/>
<path d="M93.05 90.4801C93.22 88.1901 95.08 86.1601 97.32 85.8901C99.66 85.6001 101.61 87.3101 101.58 89.8001C101.54 92.3801 99.41 94.6101 96.93 94.6901C94.57 94.7701 92.89 92.8501 93.06 90.4801H93.05Z" fill="black"/>
<path d="M63.09 124.75C63.09 123.3 64.08 122.08 65.31 122.03C66.54 121.98 67.53 123.13 67.53 124.58C67.53 126.03 66.54 127.25 65.31 127.3C64.08 127.35 63.09 126.2 63.09 124.75Z" fill="black"/>
<path d="M125.26 69.96C125.26 68.28 126.65 66.9 128.33 66.88C130.01 66.86 131.38 68.21 131.37 69.89C131.37 71.57 129.98 72.95 128.29 72.97C126.6 72.99 125.24 71.64 125.25 69.96H125.26Z" fill="black"/>
<path d="M145.62 36.2501C145.46 34.4101 146.86 32.9301 148.75 32.9301C150.64 32.9301 152.31 34.4201 152.48 36.2501C152.64 38.0901 151.24 39.5701 149.35 39.5701C147.46 39.5701 145.79 38.0801 145.62 36.2501Z" fill="black"/>
<path d="M185.19 4.69005C183.11 3.47005 181.8 2.35005 182.01 2.04005C182.21 1.73005 183.9 2.27005 186.05 3.40005C188.58 4.73005 190.76 6.33005 190.47 6.74005C190.19 7.15005 187.63 6.13005 185.19 4.69005Z" fill="black"/>
<path d="M161.36 1.90997C160.08 1.29997 159.15 0.299966 159.45 -0.260034C159.75 -0.820034 161.13 -0.600033 162.38 0.139967C163.48 0.799967 164.06 1.63997 163.8 2.06997C163.54 2.49997 162.5 2.43997 161.37 1.89997L161.36 1.90997Z" fill="black"/>
<path d="M226.01 218.03C226.77 217.09 227.7 216.57 228.09 216.86C228.48 217.16 228.18 218.16 227.42 219.1C226.66 220.04 225.73 220.56 225.34 220.27C224.95 219.97 225.25 218.97 226.01 218.03Z" fill="black"/>
<path d="M241.09 218.58C242.49 216.9 243.82 215.7 244.06 215.91C244.3 216.11 243.36 217.64 241.96 219.32C240.56 221 239.23 222.2 238.99 221.99C238.75 221.78 239.69 220.26 241.09 218.58Z" fill="black"/>
<path d="M178.07 80.66C177.79 78.24 179.5 76.28 181.89 76.28C184.28 76.28 186.45 78.24 186.73 80.66C187.01 83.08 185.3 85.04 182.91 85.04C180.52 85.04 178.35 83.08 178.07 80.66Z" fill="black"/>
<path d="M218.13 40.69C216.68 39.08 216.02 37.29 216.62 36.66C217.23 36.03 218.92 36.78 220.41 38.38C221.94 40.02 222.68 41.9 222.02 42.54C221.37 43.18 219.61 42.33 218.13 40.68V40.69Z" fill="black"/>
<path d="M218.27 54.39C217.45 53.41 217.19 52.25 217.67 51.77C218.15 51.29 219.22 51.66 220.06 52.63C220.93 53.62 221.23 54.84 220.72 55.33C220.21 55.82 219.11 55.39 218.27 54.39Z" fill="black"/>
<path d="M225.18 60.42C224.48 59.41 224.31 58.22 224.79 57.74C225.27 57.26 226.25 57.6601 226.97 58.6601C227.72 59.6801 227.92 60.93 227.4 61.43C226.89 61.92 225.88 61.46 225.17 60.43L225.18 60.42Z" fill="black"/>
<path d="M186.46 40.44C184.33 38.28 183.78 35.49 185.23 34.21C186.68 32.93 189.58 33.65 191.71 35.82C193.84 37.98 194.39 40.78 192.94 42.05C191.49 43.33 188.59 42.61 186.46 40.44Z" fill="black"/>
<path d="M213.33 22.36C211.72 20.96 210.67 19.54 210.98 19.18C211.29 18.82 212.85 19.66 214.45 21.06C216.06 22.46 217.11 23.88 216.8 24.24C216.49 24.6 214.93 23.76 213.33 22.36Z" fill="black"/>
<path d="M194.65 52.43C190.33 52.43 185.2 49.91 181.24 45.85C175.11 39.56 173.42 31.57 177.38 27.64C178.77 26.27 180.73 25.54 183.08 25.54C187.19 25.54 191.97 27.76 195.85 31.47C199.98 35.41 202.45 40.33 202.48 44.63C202.49 46.97 201.74 48.95 200.32 50.34C198.93 51.7 196.97 52.42 194.66 52.42L194.65 52.43ZM183.07 25.79C180.8 25.79 178.89 26.49 177.55 27.82C173.75 31.58 175.48 39.6 181.41 45.68C185.32 49.69 190.39 52.18 194.64 52.18C196.88 52.18 198.78 51.49 200.13 50.17C201.51 48.83 202.23 46.91 202.22 44.64C202.2 40.47 199.69 35.49 195.67 31.66C191.83 27.99 187.12 25.8 183.07 25.8V25.79Z" fill="black"/>
<path d="M241.77 202.24C241.23 202.24 240.74 202.13 240.29 201.91C236.81 200.2 237.24 192.18 241.25 184.03C244.67 177.08 249.76 172.04 253.36 172.04C253.9 172.04 254.39 172.15 254.84 172.37C256.54 173.21 257.38 175.54 257.18 178.94C256.99 182.3 255.82 186.32 253.88 190.25C250.46 197.2 245.37 202.24 241.77 202.24ZM253.36 172.28C249.86 172.28 244.86 177.27 241.48 184.13C237.53 192.15 237.05 200.02 240.41 201.67C240.82 201.87 241.28 201.97 241.78 201.97C245.28 201.97 250.28 196.98 253.66 190.12C255.58 186.22 256.74 182.24 256.93 178.91C257.12 175.62 256.34 173.37 254.73 172.58C254.32 172.38 253.86 172.28 253.36 172.28Z" fill="black"/>
<path d="M238.74 207.73C238 207.73 237.32 207.58 236.71 207.28C231.87 204.9 232.51 193.67 238.13 182.25C242.93 172.49 250.06 165.4 255.07 165.4C255.81 165.4 256.49 165.55 257.1 165.85C261.94 168.23 261.3 179.46 255.68 190.88C250.87 200.64 243.75 207.73 238.74 207.73ZM255.07 165.66C250.15 165.66 243.12 172.69 238.36 182.37C232.8 193.67 232.11 204.74 236.82 207.06C237.4 207.34 238.04 207.49 238.74 207.49C243.66 207.49 250.69 200.46 255.45 190.78C261.01 179.48 261.7 168.41 256.99 166.09C256.41 165.81 255.77 165.66 255.07 165.66Z" fill="black"/>
<path d="M223.53 185.8C222.73 185.8 221.97 185.63 221.28 185.29C219.58 184.47 218.45 182.74 218.1 180.43C217.75 178.14 218.2 175.53 219.38 173.11C221.28 169.19 224.7 166.56 227.88 166.56C228.68 166.56 229.44 166.73 230.13 167.07C231.83 167.89 232.96 169.62 233.31 171.93C233.66 174.22 233.21 176.83 232.03 179.25C230.13 183.17 226.71 185.8 223.54 185.8H223.53ZM227.87 166.81C224.79 166.81 221.46 169.39 219.6 173.22C218.44 175.6 218 178.15 218.34 180.4C218.68 182.63 219.76 184.29 221.38 185.08C222.04 185.4 222.76 185.56 223.52 185.56C226.61 185.56 229.93 182.98 231.79 179.15C232.95 176.77 233.39 174.22 233.05 171.97C232.71 169.74 231.63 168.08 230.01 167.29C229.35 166.97 228.63 166.81 227.87 166.81Z" fill="black"/>
<path d="M224.3 182.87C223.76 182.87 223.25 182.76 222.79 182.53C220.46 181.4 219.89 177.76 221.51 174.41C222.78 171.8 225.05 170.05 227.17 170.05C227.71 170.05 228.22 170.16 228.68 170.39C229.82 170.94 230.57 172.1 230.81 173.64C231.04 175.17 230.74 176.9 229.96 178.51C228.69 181.12 226.42 182.87 224.3 182.87ZM227.18 170.29C225.15 170.29 222.97 171.99 221.74 174.51C220.18 177.73 220.7 181.23 222.9 182.3C223.33 182.51 223.8 182.61 224.3 182.61C226.33 182.61 228.51 180.91 229.74 178.39C230.5 176.82 230.8 175.14 230.57 173.66C230.35 172.2 229.64 171.11 228.58 170.6C228.15 170.39 227.68 170.29 227.18 170.29Z" fill="black"/>
<path d="M256.86 197.83C256.86 197.83 256.78 197.83 256.75 197.8C256.04 197.44 258.04 193.46 258.12 193.3C259.05 191.47 260.29 189.5 260.83 189.5C260.87 189.5 260.91 189.5 260.94 189.53C260.98 189.55 261.04 189.6 261.07 189.7C261.26 190.27 260.42 192.35 259.56 194.04C258.63 195.87 257.39 197.84 256.85 197.84L256.86 197.83ZM260.83 189.75C260.58 189.75 259.54 191.06 258.35 193.41C257.1 195.88 256.73 197.4 256.87 197.58C257.13 197.58 258.17 196.27 259.36 193.92C260.62 191.43 260.99 189.9 260.84 189.75H260.83Z" fill="black"/>
<path d="M218.68 26.64C217.62 26.64 215.21 25.19 212.83 23.11C210.27 20.89 207.94 18.09 208.64 17.27C208.75 17.15 208.92 17.08 209.14 17.08C210.2 17.08 212.61 18.53 214.99 20.61C217.55 22.83 219.88 25.63 219.18 26.45C219.07 26.57 218.9 26.64 218.68 26.64ZM209.14 17.33C208.99 17.33 208.88 17.37 208.82 17.44C208.38 17.94 209.98 20.32 212.98 22.93C215.29 24.94 217.69 26.4 218.68 26.4C218.83 26.4 218.94 26.36 219 26.29C219.44 25.79 217.84 23.41 214.84 20.8C212.53 18.79 210.13 17.33 209.14 17.33Z" fill="black"/>
<path d="M99.48 236.39C99.24 237 98.25 237.19 97.26 236.81C96.27 236.43 95.66 235.62 95.89 235.01C96.13 234.4 97.12 234.21 98.11 234.59C99.1 234.97 99.71 235.78 99.48 236.39Z" fill="black"/>
</g>
<defs>
<clipPath id="clip0_28_469">
<rect width="276.25" height="276.12" fill="white" transform="translate(0 -8)"/>
</clipPath>
</defs>
</svg>
