<svg width="1280" height="72" viewBox="0 0 1280 72" fill="none" xmlns="http://www.w3.org/2000/svg">
<g clip-path="url(#clip0_2_51)">
<path fill-rule="evenodd" clip-rule="evenodd" d="M1280 62.2356C1280 57.7973 1272.86 54.0493 1265.41 53.1616C1265.64 52.4712 1265.71 51.7315 1265.71 50.9918C1265.71 42.0164 1251.46 34.7671 1233.93 34.7671C1216.41 34.7671 1222.44 35.6055 1217.64 37.0849C1214.96 31.3151 1204.73 27.074 1192.45 27.074C1180.17 27.074 1185.49 27.4192 1182.36 28.1096C1178.12 23.8685 1169.93 20.811 1160.22 20.1205C1157.4 8.8274 1137.97 0.0493151 1114.49 0.0493151C1091.01 0.0493151 1079.59 5.62192 1072.37 13.6603C1065.19 10.8493 1056.41 9.1726 1046.85 9.1726C1027.76 9.1726 1011.68 15.7315 1005.92 24.8055C998.735 21.4521 988.912 19.3808 978.047 19.3808C967.181 19.3808 969.488 19.726 965.544 20.3671C957.73 15.3863 945.898 12.1808 932.614 12.1808C919.33 12.1808 923.907 12.526 919.926 13.1671C911.851 7.00274 898.493 2.9589 883.535 2.9589C868.577 2.9589 854.809 7.10137 846.809 13.463C840.074 7.8411 827.87 4.09315 813.916 4.09315C799.963 4.09315 781.432 10.0603 776.893 18.2959C773.06 17.7534 769.005 17.4575 764.837 17.4575C754.121 17.4575 744.26 19.3808 736.223 22.5863C727.07 12.674 708.726 5.91781 687.442 5.91781C666.158 5.91781 648.149 12.4767 638.921 22.1918C633.042 20.4164 626.307 19.3808 619.126 19.3808C605.321 19.3808 593.116 23.1288 585.6 28.8986C585.228 28.8986 584.893 28.8986 584.521 28.9973C579.498 21.4521 567.516 15.8301 552.967 14.5479C548.874 7.64384 537.228 2.66301 523.535 2.66301C509.842 2.66301 493.098 10.0603 492.465 19.3315C489.898 19.0356 487.144 18.8384 484.391 18.8384C466.605 18.8384 451.758 26.0384 448.856 35.5068C436.019 36.6904 425.749 42.0658 422.623 49.0192C422.065 49.1671 421.544 49.3151 421.023 49.463C417.228 42.2137 405.321 36.937 391.144 36.937C376.967 36.937 380.279 37.7753 375.814 39.2055C369.079 32.7452 356.54 28.4055 342.214 28.4055C327.888 28.4055 333.06 28.8493 328.893 29.737C320.223 21.5507 304.223 15.9781 285.916 15.9781C267.609 15.9781 248.112 22.7342 240.298 32.4986C239.516 32.4986 238.735 32.4 237.879 32.4C234.828 32.4 231.888 32.6466 229.098 33.0411C226.307 21.4521 207.777 12.4767 185.228 12.4767C162.679 12.4767 178.047 12.674 174.623 13.1671C164.688 5.17808 147.944 0 128.967 0C109.991 0 84.0186 8.48219 76.7628 20.3178C74.9767 20.1699 73.1163 20.0712 71.1442 20.0712C52.1674 20.0712 36.6512 28.1589 35.386 38.4164H29.0233C13.0605 38.3671 0 45.8137 0 54.9863C0 64.1589 0.0744186 64.7014 0 72L229.805 71.6548C231.07 71.6548 232.335 71.6055 233.563 71.5069C234.977 71.6055 236.391 71.6548 237.805 71.6548H421.767C423.256 71.6548 424.744 71.5562 426.158 71.3589C427.647 71.5562 429.172 71.6548 430.772 71.6548H591.777C594.121 71.6548 596.391 71.5069 598.586 71.3096H656.707C657.377 71.3096 658.084 71.4082 658.791 71.4082H897.228C898.084 71.4575 898.902 71.5069 899.795 71.5069H1087.96C1089.67 71.6055 1091.42 71.6548 1093.21 71.6548C1095 71.6548 1096.74 71.6548 1098.53 71.5069L1280 71.6548C1280 65.3425 1280 68.9918 1280 63.863V62.2356Z" fill="white"/>
</g>
<defs>
<clipPath id="clip0_2_51">
<rect width="1280" height="72" fill="white"/>
</clipPath>
</defs>
</svg>
