<?xml version="1.0" encoding="UTF-8"?>
<svg id="Layer_1" xmlns="http://www.w3.org/2000/svg" xmlns:xlink="http://www.w3.org/1999/xlink" version="1.1" viewBox="0 0 1280 72">
  <!-- Generator: Adobe Illustrator 30.1.0, SVG Export Plug-In . SVG Version: 2.1.1 Build 136)  -->
  <defs>
    <style>
      .st0 {
        fill: none;
      }

      .st1 {
        fill: #fff;
        fill-rule: evenodd;
      }

      .st2 {
        clip-path: url(#clippath);
      }
    </style>
    <clipPath id="clippath">
      <rect class="st0" width="1280" height="72"/>
    </clipPath>
  </defs>
  <g class="st2">
    <path class="st1" d="M1280,62.2c0-4.4-7.1-8.2-14.6-9.1.2-.7.3-1.4.3-2.2,0-9-14.2-16.2-31.8-16.2s-11.5.8-16.3,2.3c-2.7-5.8-12.9-10-25.2-10s-7,.3-10.1,1c-4.2-4.2-12.4-7.3-22.1-8-2.8-11.3-22.2-20.1-45.7-20.1s-34.9,5.6-42.1,13.6c-7.2-2.8-16-4.5-25.5-4.5-19.1,0-35.2,6.6-40.9,15.6-7.2-3.4-17-5.4-27.9-5.4s-8.6.3-12.5,1c-7.8-5-19.6-8.2-32.9-8.2s-8.7.3-12.7,1c-8.1-6.2-21.4-10.2-36.4-10.2s-28.7,4.1-36.7,10.5c-6.7-5.6-18.9-9.4-32.9-9.4s-32.5,6-37,14.2c-3.8-.5-7.9-.8-12.1-.8-10.7,0-20.6,1.9-28.6,5.1-9.2-9.9-27.5-16.7-48.8-16.7s-39.3,6.6-48.5,16.3c-5.9-1.8-12.6-2.8-19.8-2.8-13.8,0-26,3.7-33.5,9.5-.4,0-.7,0-1.1,0-5-7.5-17-13.2-31.6-14.4-4.1-6.9-15.7-11.9-29.4-11.9s-30.4,7.4-31.1,16.7c-2.6-.3-5.3-.5-8.1-.5-17.8,0-32.6,7.2-35.5,16.7-12.8,1.2-23.1,6.6-26.2,13.5-.6.1-1.1.3-1.6.4-3.8-7.2-15.7-12.5-29.9-12.5s-10.9.8-15.3,2.3c-6.7-6.5-19.3-10.8-33.6-10.8s-9.2.4-13.3,1.3c-8.7-8.2-24.7-13.8-43-13.8s-37.8,6.8-45.6,16.5c-.8,0-1.6,0-2.4,0-3.1,0-6,.2-8.8.6-2.8-11.6-21.3-20.6-43.9-20.6s-7.2.2-10.6.7c-9.9-8-26.7-13.2-45.7-13.2s-44.9,8.5-52.2,20.3c-1.8-.1-3.6-.2-5.6-.2-19,0-34.5,8.1-35.8,18.3h-6.4c-16,0-29,7.4-29,16.6s0,9.7,0,17h1280v-9.8Z"/>
  </g>
</svg>