<svg width="200" height="200" viewBox="0 0 200 200" fill="none" xmlns="http://www.w3.org/2000/svg">
<path d="M16.6666 154.167H183.333C187.938 154.167 191.667 150.437 191.667 145.833V37.5C191.667 32.8958 187.938 29.1666 183.333 29.1666H16.6666C12.0625 29.1666 8.33331 32.8958 8.33331 37.5V145.833C8.33331 150.437 12.0625 154.167 16.6666 154.167Z" fill="url(#paint0_linear_5_66)"/>
<path d="M183.333 37.5H16.6666V145.833H183.333V37.5Z" fill="url(#paint1_linear_5_66)"/>
<path d="M156.25 162.5H125V154.167H75V162.5H43.75C42.6 162.5 41.6666 163.433 41.6666 164.583V168.75C41.6666 169.9 42.6 170.833 43.75 170.833H156.25C157.4 170.833 158.333 169.9 158.333 168.75V164.583C158.333 163.433 157.4 162.5 156.25 162.5Z" fill="url(#paint2_linear_5_66)"/>
<path opacity="0.05" d="M108.208 91.6667C103.683 91.6667 100 87.9834 100 83.4584V54.0417C100 49.5167 103.683 45.8334 108.208 45.8334H166.792C171.317 45.8334 175 49.5167 175 54.0417V83.4625C175 87.9875 171.317 91.6709 166.792 91.6709L108.208 91.6667Z" fill="black"/>
<path opacity="0.07" d="M108.208 89.5833C104.829 89.5833 102.083 86.8375 102.083 83.4583V54.0416C102.083 50.6625 104.833 47.9166 108.208 47.9166H166.792C170.171 47.9166 172.917 50.6625 172.917 54.0416V83.4625C172.917 86.8416 170.167 89.5875 166.792 89.5875L108.208 89.5833Z" fill="black"/>
<path d="M166.792 87.5H108.208C105.975 87.5 104.167 85.6917 104.167 83.4583V54.0417C104.167 51.8083 105.975 50 108.208 50H166.792C169.025 50 170.833 51.8083 170.833 54.0417V83.4583C170.833 85.6917 169.025 87.5 166.792 87.5Z" fill="#4A90E2"/>
<path opacity="0.05" d="M108.208 137.5C103.683 137.5 100 133.817 100 129.292V99.875C100 95.35 103.683 91.6666 108.208 91.6666H166.792C171.317 91.6666 175 95.35 175 99.875V129.296C175 133.821 171.317 137.504 166.792 137.504L108.208 137.5Z" fill="black"/>
<path opacity="0.07" d="M108.208 135.417C104.829 135.417 102.083 132.671 102.083 129.292V99.875C102.083 96.4958 104.833 93.75 108.208 93.75H166.792C170.171 93.75 172.917 96.4958 172.917 99.875V129.296C172.917 132.675 170.167 135.421 166.792 135.421L108.208 135.417Z" fill="black"/>
<path d="M166.792 133.333H108.208C105.975 133.333 104.167 131.525 104.167 129.292V99.875C104.167 97.6417 105.975 95.8334 108.208 95.8334H166.792C169.025 95.8334 170.833 97.6417 170.833 99.875V129.292C170.833 131.525 169.025 133.333 166.792 133.333Z" fill="#F14753"/>
<path opacity="0.05" d="M33.2083 91.6667C28.6833 91.6667 25 87.9834 25 83.4584V54.0417C25 49.5167 28.6833 45.8334 33.2083 45.8334H91.7917C96.3167 45.8334 100 49.5167 100 54.0417V83.4625C100 87.9875 96.3167 91.6709 91.7917 91.6709L33.2083 91.6667Z" fill="black"/>
<path opacity="0.07" d="M33.2084 89.5833C29.8292 89.5833 27.0834 86.8375 27.0834 83.4583V54.0416C27.0834 50.6625 29.8334 47.9166 33.2084 47.9166H91.7917C95.1709 47.9166 97.9167 50.6625 97.9167 54.0416V83.4625C97.9167 86.8416 95.1667 89.5875 91.7917 89.5875L33.2084 89.5833Z" fill="black"/>
<path d="M91.7916 87.5H33.2083C30.975 87.5 29.1666 85.6917 29.1666 83.4583V54.0417C29.1666 51.8083 30.975 50 33.2083 50H91.7916C94.025 50 95.8333 51.8083 95.8333 54.0417V83.4583C95.8333 85.6917 94.025 87.5 91.7916 87.5Z" fill="#00FF7F"/>
<path opacity="0.05" d="M33.2083 137.5C28.6833 137.5 25 133.817 25 129.292V99.875C25 95.35 28.6833 91.6666 33.2083 91.6666H91.7917C96.3167 91.6666 100 95.35 100 99.875V129.296C100 133.821 96.3167 137.504 91.7917 137.504L33.2083 137.5Z" fill="black"/>
<path opacity="0.07" d="M33.2084 135.417C29.8292 135.417 27.0834 132.671 27.0834 129.292V99.875C27.0834 96.4958 29.8334 93.75 33.2084 93.75H91.7917C95.1709 93.75 97.9167 96.4958 97.9167 99.875V129.296C97.9167 132.675 95.1667 135.421 91.7917 135.421L33.2084 135.417Z" fill="black"/>
<path d="M91.7916 133.333H33.2083C30.975 133.333 29.1666 131.525 29.1666 129.292V99.875C29.1666 97.6417 30.975 95.8334 33.2083 95.8334H91.7916C94.025 95.8334 95.8333 97.6417 95.8333 99.875V129.292C95.8333 131.525 94.025 133.333 91.7916 133.333Z" fill="#FFD93D"/>
<defs>
<linearGradient id="paint0_linear_5_66" x1="172.167" y1="30.7791" x2="33.5542" y2="147.729" gradientUnits="userSpaceOnUse">
<stop stop-color="#A1AAB3"/>
<stop offset="1" stop-color="#8F979E"/>
</linearGradient>
<linearGradient id="paint1_linear_5_66" x1="83.3291" y1="37.9542" x2="118.5" y2="151.283" gradientUnits="userSpaceOnUse">
<stop stop-color="#6D7479"/>
<stop offset="1" stop-color="#323538"/>
</linearGradient>
<linearGradient id="paint2_linear_5_66" x1="100" y1="154.133" x2="100" y2="170.867" gradientUnits="userSpaceOnUse">
<stop stop-color="#484B4F"/>
<stop offset="0.23" stop-color="#656D75"/>
<stop offset="0.367" stop-color="#727D86"/>
</linearGradient>
</defs>
</svg>
