<svg width="200" height="200" viewBox="0 0 200 200" fill="none" xmlns="http://www.w3.org/2000/svg">
<path d="M99.625 3.875C99.4531 3.90625 99.2812 3.95313 99.125 4C97.2656 4.42188 95.9531 6.09375 96 8V24C95.9844 25.4375 96.7344 26.7813 97.9844 27.5156C99.2344 28.2344 100.766 28.2344 102.016 27.5156C103.266 26.7813 104.016 25.4375 104 24V8C104.047 6.84375 103.578 5.73438 102.75 4.95313C101.906 4.15625 100.766 3.76563 99.625 3.875ZM40.125 28.5C40 28.5313 39.875 28.5781 39.75 28.625C38.3125 28.9219 37.1562 30 36.7344 31.4063C36.3125 32.8125 36.7031 34.3438 37.75 35.375L49.125 46.75C50.0938 47.9375 51.6406 48.4844 53.1406 48.1406C54.625 47.7969 55.7969 46.625 56.1406 45.1406C56.4844 43.6406 55.9375 42.0938 54.75 41.125L43.375 29.75C42.625 28.9531 41.5938 28.5156 40.5 28.5C40.375 28.5 40.25 28.5 40.125 28.5ZM159 28.5C158.828 28.5313 158.656 28.5781 158.5 28.625C157.781 28.8125 157.141 29.2031 156.625 29.75L145.25 41.125C144.062 42.0938 143.516 43.6406 143.859 45.1406C144.203 46.625 145.375 47.7969 146.859 48.1406C148.359 48.4844 149.906 47.9375 150.875 46.75L162.25 35.375C163.5 34.1875 163.859 32.3281 163.125 30.7656C162.375 29.1875 160.719 28.2813 159 28.5ZM100 36C69.125 36 44 61.125 44 92C44 111.562 52.7656 124.703 61 134.375C65.125 139.203 69.1094 143.297 71.875 146.875C74.6406 150.453 76 153.312 76 156V170.125C75.4688 171.234 75.4688 172.516 76 173.625V176C76 182.578 81.4219 188 88 188H91.125C93.3281 190.438 96.4688 192 100 192C103.531 192 106.672 190.438 108.875 188H112C118.578 188 124 182.578 124 176V172.75C124.109 172.219 124.109 171.656 124 171.125V156C124 153.312 125.359 150.422 128.125 146.875C130.891 143.328 134.875 139.312 139 134.5C147.234 124.875 156 111.734 156 92C156 61.125 130.875 36 100 36ZM100 44C126.562 44 148 65.4375 148 92C148 109.438 140.766 120.312 133 129.375C129.125 133.906 125.109 137.859 121.875 142C119.5 145.047 117.797 148.375 116.875 152H83.125C82.2031 148.375 80.5 145.062 78.125 142C74.8906 137.828 70.875 133.812 67 129.25C59.2344 120.141 52 109.25 52 92C52 65.4375 73.4375 44 100 44ZM14.875 88C12.6719 88.3125 11.125 90.3594 11.4375 92.5625C11.75 94.7656 13.7969 96.3125 16 96H32C33.4375 96.0156 34.7813 95.2656 35.5156 94.0156C36.2344 92.7656 36.2344 91.2344 35.5156 89.9844C34.7813 88.7344 33.4375 87.9844 32 88H16C15.875 88 15.75 88 15.625 88C15.5 88 15.375 88 15.25 88C15.125 88 15 88 14.875 88ZM166.875 88C164.672 88.3125 163.125 90.3594 163.437 92.5625C163.75 94.7656 165.797 96.3125 168 96H184C185.437 96.0156 186.781 95.2656 187.516 94.0156C188.234 92.7656 188.234 91.2344 187.516 89.9844C186.781 88.7344 185.437 87.9844 184 88H168C167.875 88 167.75 88 167.625 88C167.5 88 167.375 88 167.25 88C167.125 88 167 88 166.875 88ZM51.5 136C50.5938 136.125 49.75 136.578 49.125 137.25L37.75 148.625C36.5625 149.594 36.0156 151.141 36.3594 152.641C36.7031 154.125 37.875 155.297 39.3594 155.641C40.8594 155.984 42.4062 155.438 43.375 154.25L54.75 142.875C55.9375 141.734 56.2969 139.969 55.6562 138.453C55.0312 136.938 53.5156 135.969 51.875 136C51.75 136 51.625 136 51.5 136ZM147.25 136C145.75 136.266 144.547 137.359 144.125 138.812C143.703 140.281 144.141 141.844 145.25 142.875L156.625 154.25C157.594 155.438 159.141 155.984 160.641 155.641C162.125 155.297 163.297 154.125 163.641 152.641C163.984 151.141 163.437 149.594 162.25 148.625L150.875 137.25C150.125 136.453 149.094 136.016 148 136C147.875 136 147.75 136 147.625 136C147.5 136 147.375 136 147.25 136ZM84 160H116V168H96C95.875 168 95.75 168 95.625 168C95.5 168 95.375 168 95.25 168C93.0469 168.203 91.4219 170.172 91.625 172.375C91.8281 174.578 93.7969 176.203 96 176H116C116 178.266 114.266 180 112 180H88C85.7344 180 84 178.266 84 176C85.4375 176.016 86.7812 175.266 87.5156 174.016C88.2344 172.766 88.2344 171.234 87.5156 169.984C86.7812 168.734 85.4375 167.984 84 168V160Z" fill="#2C2C2C"/>
</svg>
