<svg width="128" height="128" viewBox="0 0 128 128" fill="none" xmlns="http://www.w3.org/2000/svg">
<path d="M30.903 13C27.6427 13 24.716 14.8094 23.2651 17.7195L13.1257 37.99C12.3919 39.4659 12 41.1169 12 42.7595V64.2308C12 66.7906 13.159 69.067 14.9518 70.6346C13.159 72.2022 12 74.4786 12 77.0385V89.8462C12 92.406 13.159 94.6824 14.9518 96.25C13.159 97.8176 12 100.094 12 102.654V115.462C12 120.173 15.8273 124 20.5385 124H114.462C119.173 124 123 120.173 123 115.462V102.654C123 100.094 121.841 97.8176 120.048 96.25C121.841 94.6824 123 92.406 123 89.8462V77.0385C123 74.4786 121.841 72.2022 120.048 70.6346C121.841 69.067 123 66.7906 123 64.2308V42.7595C123 41.1169 122.608 39.4659 121.874 37.99L111.735 17.7195C110.284 14.8094 107.357 13 104.097 13H30.903ZM30.903 17.2692H104.097C105.723 17.2692 107.191 18.1781 107.916 19.629L118.055 39.8995C118.497 40.7834 118.731 41.7756 118.731 42.7595V42.8846H16.2692V42.7595C16.2692 41.7756 16.5027 40.7834 16.9446 39.8995L27.0757 19.629C27.8095 18.1781 29.2687 17.2692 30.903 17.2692ZM31.2115 21.5385C30.0275 21.5385 29.0769 22.489 29.0769 23.6731C29.0769 24.8571 30.0275 25.8077 31.2115 25.8077H86.7115C87.8956 25.8077 88.8462 24.8571 88.8462 23.6731C88.8462 22.489 87.8956 21.5385 86.7115 21.5385H31.2115ZM95.25 21.5385C94.066 21.5385 93.1154 22.489 93.1154 23.6731C93.1154 24.8571 94.066 25.8077 95.25 25.8077H103.788C104.973 25.8077 105.923 24.8571 105.923 23.6731C105.923 22.489 104.973 21.5385 103.788 21.5385H95.25ZM16.2692 47.1538H118.731V64.2308C118.731 66.5822 116.813 68.5 114.462 68.5H20.5385C18.1871 68.5 16.2692 66.5822 16.2692 64.2308V47.1538ZM103.788 51.4231C100.261 51.4231 97.3846 54.2998 97.3846 57.8269C97.3846 61.354 100.261 64.2308 103.788 64.2308C107.316 64.2308 110.192 61.354 110.192 57.8269C110.192 54.2998 107.316 51.4231 103.788 51.4231ZM26.9423 53.5577C25.7583 53.5577 24.8077 54.5083 24.8077 55.6923V59.9615C24.8077 61.1456 25.7583 62.0962 26.9423 62.0962C28.1264 62.0962 29.0769 61.1456 29.0769 59.9615V55.6923C29.0769 54.5083 28.1264 53.5577 26.9423 53.5577ZM37.6154 53.5577C36.4313 53.5577 35.4808 54.5083 35.4808 55.6923V59.9615C35.4808 61.1456 36.4313 62.0962 37.6154 62.0962C38.7994 62.0962 39.75 61.1456 39.75 59.9615V55.6923C39.75 54.5083 38.7994 53.5577 37.6154 53.5577ZM48.2885 53.5577C47.1044 53.5577 46.1538 54.5083 46.1538 55.6923V59.9615C46.1538 61.1456 47.1044 62.0962 48.2885 62.0962C49.4725 62.0962 50.4231 61.1456 50.4231 59.9615V55.6923C50.4231 54.5083 49.4725 53.5577 48.2885 53.5577ZM58.9615 53.5577C57.7775 53.5577 56.8269 54.5083 56.8269 55.6923V59.9615C56.8269 61.1456 57.7775 62.0962 58.9615 62.0962C60.1456 62.0962 61.0962 61.1456 61.0962 59.9615V55.6923C61.0962 54.5083 60.1456 53.5577 58.9615 53.5577ZM69.6346 53.5577C68.4506 53.5577 67.5 54.5083 67.5 55.6923V59.9615C67.5 61.1456 68.4506 62.0962 69.6346 62.0962C70.8187 62.0962 71.7692 61.1456 71.7692 59.9615V55.6923C71.7692 54.5083 70.8187 53.5577 69.6346 53.5577ZM103.788 55.2504C105.214 55.2504 106.365 56.4094 106.365 57.8269C106.365 59.2528 105.206 60.4035 103.788 60.4035C102.371 60.4035 101.212 59.2528 101.212 57.8269C101.212 56.4011 102.363 55.2504 103.788 55.2504ZM78.1731 55.6923C76.989 55.6923 76.0385 56.6429 76.0385 57.8269C76.0385 59.011 76.989 59.9615 78.1731 59.9615H90.9808C92.1648 59.9615 93.1154 59.011 93.1154 57.8269C93.1154 56.6429 92.1648 55.6923 90.9808 55.6923H78.1731ZM20.5385 72.7692H114.462C116.813 72.7692 118.731 74.687 118.731 77.0385V89.8462C118.731 92.1976 116.813 94.1154 114.462 94.1154H20.5385C18.1871 94.1154 16.2692 92.1976 16.2692 89.8462V77.0385C16.2692 74.687 18.1871 72.7692 20.5385 72.7692ZM103.788 77.0385C100.261 77.0385 97.3846 79.9152 97.3846 83.4423C97.3846 86.9694 100.261 89.8462 103.788 89.8462C107.316 89.8462 110.192 86.9694 110.192 83.4423C110.192 79.9152 107.316 77.0385 103.788 77.0385ZM26.9423 79.1731C25.7583 79.1731 24.8077 80.1236 24.8077 81.3077V85.5769C24.8077 86.761 25.7583 87.7115 26.9423 87.7115C28.1264 87.7115 29.0769 86.761 29.0769 85.5769V81.3077C29.0769 80.1236 28.1264 79.1731 26.9423 79.1731ZM37.6154 79.1731C36.4313 79.1731 35.4808 80.1236 35.4808 81.3077V85.5769C35.4808 86.761 36.4313 87.7115 37.6154 87.7115C38.7994 87.7115 39.75 86.761 39.75 85.5769V81.3077C39.75 80.1236 38.7994 79.1731 37.6154 79.1731ZM48.2885 79.1731C47.1044 79.1731 46.1538 80.1236 46.1538 81.3077V85.5769C46.1538 86.761 47.1044 87.7115 48.2885 87.7115C49.4725 87.7115 50.4231 86.761 50.4231 85.5769V81.3077C50.4231 80.1236 49.4725 79.1731 48.2885 79.1731ZM58.9615 79.1731C57.7775 79.1731 56.8269 80.1236 56.8269 81.3077V85.5769C56.8269 86.761 57.7775 87.7115 58.9615 87.7115C60.1456 87.7115 61.0962 86.761 61.0962 85.5769V81.3077C61.0962 80.1236 60.1456 79.1731 58.9615 79.1731ZM69.6346 79.1731C68.4506 79.1731 67.5 80.1236 67.5 81.3077V85.5769C67.5 86.761 68.4506 87.7115 69.6346 87.7115C70.8187 87.7115 71.7692 86.761 71.7692 85.5769V81.3077C71.7692 80.1236 70.8187 79.1731 69.6346 79.1731ZM103.788 80.8658C105.206 80.8658 106.365 82.0248 106.365 83.4423C106.365 84.8682 105.214 86.0189 103.788 86.0189C102.363 86.0189 101.212 84.8598 101.212 83.4423C101.212 82.0164 102.371 80.8658 103.788 80.8658ZM78.1731 81.3077C76.989 81.3077 76.0385 82.2583 76.0385 83.4423C76.0385 84.6264 76.989 85.5769 78.1731 85.5769H90.9808C92.1648 85.5769 93.1154 84.6264 93.1154 83.4423C93.1154 82.2583 92.1648 81.3077 90.9808 81.3077H78.1731ZM20.5385 98.3846H114.462C116.813 98.3846 118.731 100.302 118.731 102.654V115.462C118.731 117.813 116.813 119.731 114.462 119.731H20.5385C18.1871 119.731 16.2692 117.813 16.2692 115.462V102.654C16.2692 100.302 18.1871 98.3846 20.5385 98.3846ZM103.788 102.654C100.261 102.654 97.3846 105.531 97.3846 109.058C97.3846 112.585 100.261 115.462 103.788 115.462C107.316 115.462 110.192 112.585 110.192 109.058C110.192 105.531 107.316 102.654 103.788 102.654ZM26.9423 104.788C25.7583 104.788 24.8077 105.739 24.8077 106.923V111.192C24.8077 112.376 25.7583 113.327 26.9423 113.327C28.1264 113.327 29.0769 112.376 29.0769 111.192V106.923C29.0769 105.739 28.1264 104.788 26.9423 104.788ZM37.6154 104.788C36.4313 104.788 35.4808 105.739 35.4808 106.923V111.192C35.4808 112.376 36.4313 113.327 37.6154 113.327C38.7994 113.327 39.75 112.376 39.75 111.192V106.923C39.75 105.739 38.7994 104.788 37.6154 104.788ZM48.2885 104.788C47.1044 104.788 46.1538 105.739 46.1538 106.923V111.192C46.1538 112.376 47.1044 113.327 48.2885 113.327C49.4725 113.327 50.4231 112.376 50.4231 111.192V106.923C50.4231 105.739 49.4725 104.788 48.2885 104.788ZM58.9615 104.788C57.7775 104.788 56.8269 105.739 56.8269 106.923V111.192C56.8269 112.376 57.7775 113.327 58.9615 113.327C60.1456 113.327 61.0962 112.376 61.0962 111.192V106.923C61.0962 105.739 60.1456 104.788 58.9615 104.788ZM69.6346 104.788C68.4506 104.788 67.5 105.739 67.5 106.923V111.192C67.5 112.376 68.4506 113.327 69.6346 113.327C70.8187 113.327 71.7692 112.376 71.7692 111.192V106.923C71.7692 105.739 70.8187 104.788 69.6346 104.788ZM103.788 106.389C105.264 106.389 106.457 107.582 106.457 109.058C106.457 110.534 105.264 111.726 103.788 111.726C102.313 111.726 101.12 110.534 101.12 109.058C101.12 107.582 102.313 106.389 103.788 106.389ZM78.1731 106.923C76.989 106.923 76.0385 107.874 76.0385 109.058C76.0385 110.242 76.989 111.192 78.1731 111.192H90.9808C92.1648 111.192 93.1154 110.242 93.1154 109.058C93.1154 107.874 92.1648 106.923 90.9808 106.923H78.1731Z" fill="#2C2C2C"/>
</svg>
