<svg width="201" height="201" viewBox="0 0 201 201" fill="none" xmlns="http://www.w3.org/2000/svg">
<g clip-path="url(#clip0_4_30)">
<path d="M196.028 10.3861C196.012 4.69859 191.312 0.0241752 185.624 0.0400296L62.3747 0.3836C56.6872 0.399454 52.0128 5.1 52.0287 10.7875L52.3064 110.412L60.2841 102.39L60.0287 10.7652C60.0249 9.40581 61.0377 8.38736 62.397 8.38357L185.647 8.04C187.006 8.03621 188.024 9.049 188.028 10.4084L188.528 189.658C188.532 191.017 187.519 192.035 186.159 192.039L62.9099 192.383C61.5506 192.387 60.5321 191.374 60.5283 190.014L60.4625 166.39L52.4848 174.412L52.5284 190.037C52.5442 195.724 57.2448 200.399 62.9322 200.383L186.182 200.039C191.869 200.023 196.544 195.323 196.528 189.635L196.028 10.3861ZM180.055 20.0556L148.055 20.1448L148.1 36.1448L180.1 36.0556L180.055 20.0556ZM180.133 48.0555L68.1335 48.3677L68.2617 94.3676L76.2394 86.3453L76.1558 56.3454L172.155 56.0778L172.49 176.077L76.4903 176.345L76.4178 150.345L68.4401 158.367L68.5126 184.367L180.512 184.055L180.133 48.0555ZM140.077 28.1671C140.053 19.3703 132.83 12.1872 124.033 12.2118C115.236 12.2363 108.053 19.4595 108.078 28.2563C108.102 37.0531 115.325 44.2362 124.122 44.2116C132.919 44.1871 140.102 36.9639 140.077 28.1671ZM132.078 28.1894C132.09 32.6581 128.569 36.1992 124.1 36.2117C119.631 36.2241 116.09 32.7027 116.078 28.234C116.065 23.7653 119.587 20.2242 124.055 20.2117C128.524 20.1993 132.065 23.7207 132.078 28.1894ZM128.078 28.2006C128.071 25.9974 126.27 24.2056 124.066 24.2117C121.863 24.2179 120.071 26.0197 120.078 28.2229C120.084 30.426 121.886 32.2178 124.089 32.2117C126.292 32.2055 128.084 30.4037 128.078 28.2006ZM112.241 86.8699C112.239 86.1824 112.018 85.5112 111.486 84.997C110.436 83.9531 108.655 83.958 107.611 85.0078C107.455 85.1645 106.271 86.3553 105.118 87.5148L104.616 87.0162C103.473 85.8631 101.737 85.5242 100.239 86.1534L74.3933 96.7255C73.2853 97.2129 72.4599 98.184 72.1507 99.3567C72.1507 99.3724 72.026 99.4665 72.026 99.4821C72.0262 99.5602 72.0265 99.654 72.0267 99.7321C71.9803 99.9041 71.8559 100.108 71.7784 100.358C71.5926 100.968 71.4075 101.812 71.0351 102.735C70.2903 104.596 69.0151 106.772 68.049 107.743L12.7043 163.523C11.4422 164.792 10.6352 166.778 10.7182 168.528C10.7515 169.263 10.894 169.934 11.0988 170.527L7.73324 173.912C3.51068 178.158 3.52993 185.064 7.77609 189.287C12.0223 193.509 18.9285 193.49 23.151 189.244L26.5166 185.859C27.1109 186.061 27.7832 186.2 28.5177 186.229C30.2679 186.302 32.375 185.484 33.6371 184.214L88.9821 128.56C91.1012 126.429 97.2209 124.537 97.2209 124.537C97.8767 124.363 98.4851 124.018 98.9682 123.532C99.0617 123.454 99.1396 123.375 99.2175 123.281C99.529 122.952 99.778 122.577 99.9643 122.154L110.392 96.2501C110.687 95.6243 110.81 94.9364 110.762 94.2491C110.634 93.3432 110.179 92.5007 109.505 91.8776L109.004 91.379L111.497 88.872C112.026 88.3393 112.243 87.5574 112.241 86.8699ZM102.015 95.6485L94.8153 113.544L83.0326 101.826L100.887 94.5266L102.015 95.6485ZM100.055 20.2786L68.0555 20.3678L68.1001 36.3678L100.1 36.2786L100.055 20.2786ZM89.206 119.184C87.2399 120.127 85.1486 121.008 83.3411 122.826L28.4947 177.979C28.4164 177.948 28.4792 178.041 28.3697 177.979C28.213 177.839 28.0408 177.714 27.8686 177.605C26.8196 176.827 25.3153 175.316 23.4821 173.493C21.9936 172.012 20.8495 170.766 19.9717 169.752C19.814 169.253 19.5627 168.785 19.2179 168.38L73.8147 113.352C75.6533 111.503 76.5382 109.454 77.4233 107.467L89.206 119.184ZM71.8565 128.358C71.9475 127.357 71.6793 126.436 70.9742 125.735C69.5797 124.348 67.1428 124.574 65.4756 126.25C64.9147 126.815 56.937 134.837 56.3761 135.401C54.7089 137.077 54.4969 139.515 55.8914 140.902C57.2859 142.305 59.7228 142.063 61.39 140.387L70.4895 131.236C71.3309 130.39 71.7655 129.358 71.8565 128.358ZM19.8787 181.253L17.5104 183.634C16.3418 184.81 14.5605 184.814 13.3854 183.646C12.2103 182.477 12.2053 180.696 13.3739 179.521L15.7423 177.139C16.4005 177.841 17.0274 178.542 17.7482 179.259C18.4689 179.975 19.1738 180.598 19.8787 181.253Z" fill="#2C2C2C"/>
</g>
<defs>
<clipPath id="clip0_4_30">
<rect width="200" height="200" fill="white" transform="translate(199.999) rotate(89.8403)"/>
</clipPath>
</defs>
</svg>
