<svg width="200" height="200" viewBox="0 0 200 200" fill="none" xmlns="http://www.w3.org/2000/svg">
<path d="M27.5 32.5C22.0067 32.5 17.5 37.0067 17.5 42.5V167.5H20H182.5V42.5C182.5 37.0067 177.993 32.5 172.5 32.5H27.5ZM27.5 37.5H172.5C175.292 37.5 177.5 39.7083 177.5 42.5V72.5H22.5V42.5C22.5 39.7083 24.7083 37.5 27.5 37.5ZM40 45C34.5068 45 30 49.5068 30 55C30 60.4932 34.5068 65 40 65C42.9928 65 45.6621 63.6345 47.5 61.5283C49.3379 63.6345 52.0072 65 55 65C60.4932 65 65 60.4932 65 55C65 49.5068 60.4932 45 55 45C52.0072 45 49.3379 46.3655 47.5 48.4717C45.6621 46.3655 42.9928 45 40 45ZM72.5 45V47.5V65H170V45H72.5ZM40 50C42.791 50 45 52.209 45 55C45 57.791 42.791 60 40 60C37.209 60 35 57.791 35 55C35 52.209 37.209 50 40 50ZM55 50C57.791 50 60 52.209 60 55C60 57.791 57.791 60 55 60C52.209 60 50 57.791 50 55C50 52.209 52.209 50 55 50ZM77.5 50H165V60H77.5V50ZM22.5 77.5H177.5V162.5H22.5V77.5ZM35 87.5C34.337 87.5 33.7011 87.7634 33.2322 88.2322C32.7634 88.7011 32.5 89.337 32.5 90C32.5 90.663 32.7634 91.2989 33.2322 91.7678C33.7011 92.2366 34.337 92.5 35 92.5C35.663 92.5 36.2989 92.2366 36.7678 91.7678C37.2366 91.2989 37.5 90.663 37.5 90C37.5 89.337 37.2366 88.7011 36.7678 88.2322C36.2989 87.7634 35.663 87.5 35 87.5ZM45 87.5C44.337 87.5 43.7011 87.7634 43.2322 88.2322C42.7634 88.7011 42.5 89.337 42.5 90C42.5 90.663 42.7634 91.2989 43.2322 91.7678C43.7011 92.2366 44.337 92.5 45 92.5C45.663 92.5 46.2989 92.2366 46.7678 91.7678C47.2366 91.2989 47.5 90.663 47.5 90C47.5 89.337 47.2366 88.7011 46.7678 88.2322C46.2989 87.7634 45.663 87.5 45 87.5ZM55 87.5C54.337 87.5 53.7011 87.7634 53.2322 88.2322C52.7634 88.7011 52.5 89.337 52.5 90C52.5 90.663 52.7634 91.2989 53.2322 91.7678C53.7011 92.2366 54.337 92.5 55 92.5C55.663 92.5 56.2989 92.2366 56.7678 91.7678C57.2366 91.2989 57.5 90.663 57.5 90C57.5 89.337 57.2366 88.7011 56.7678 88.2322C56.2989 87.7634 55.663 87.5 55 87.5ZM65 87.5C64.337 87.5 63.7011 87.7634 63.2322 88.2322C62.7634 88.7011 62.5 89.337 62.5 90C62.5 90.663 62.7634 91.2989 63.2322 91.7678C63.7011 92.2366 64.337 92.5 65 92.5C65.663 92.5 66.2989 92.2366 66.7678 91.7678C67.2366 91.2989 67.5 90.663 67.5 90C67.5 89.337 67.2366 88.7011 66.7678 88.2322C66.2989 87.7634 65.663 87.5 65 87.5ZM75 87.5C74.337 87.5 73.7011 87.7634 73.2322 88.2322C72.7634 88.7011 72.5 89.337 72.5 90C72.5 90.663 72.7634 91.2989 73.2322 91.7678C73.7011 92.2366 74.337 92.5 75 92.5C75.663 92.5 76.2989 92.2366 76.7678 91.7678C77.2366 91.2989 77.5 90.663 77.5 90C77.5 89.337 77.2366 88.7011 76.7678 88.2322C76.2989 87.7634 75.663 87.5 75 87.5ZM85 87.5C84.337 87.5 83.7011 87.7634 83.2322 88.2322C82.7634 88.7011 82.5 89.337 82.5 90C82.5 90.663 82.7634 91.2989 83.2322 91.7678C83.7011 92.2366 84.337 92.5 85 92.5C85.663 92.5 86.2989 92.2366 86.7678 91.7678C87.2366 91.2989 87.5 90.663 87.5 90C87.5 89.337 87.2366 88.7011 86.7678 88.2322C86.2989 87.7634 85.663 87.5 85 87.5ZM95 87.5C94.337 87.5 93.7011 87.7634 93.2322 88.2322C92.7634 88.7011 92.5 89.337 92.5 90C92.5 90.663 92.7634 91.2989 93.2322 91.7678C93.7011 92.2366 94.337 92.5 95 92.5C95.663 92.5 96.2989 92.2366 96.7678 91.7678C97.2366 91.2989 97.5 90.663 97.5 90C97.5 89.337 97.2366 88.7011 96.7678 88.2322C96.2989 87.7634 95.663 87.5 95 87.5ZM115 87.5C114.337 87.5 113.701 87.7634 113.232 88.2322C112.763 88.7011 112.5 89.337 112.5 90C112.5 90.663 112.763 91.2989 113.232 91.7678C113.701 92.2366 114.337 92.5 115 92.5C115.663 92.5 116.299 92.2366 116.768 91.7678C117.237 91.2989 117.5 90.663 117.5 90C117.5 89.337 117.237 88.7011 116.768 88.2322C116.299 87.7634 115.663 87.5 115 87.5ZM125 87.5C124.337 87.5 123.701 87.7634 123.232 88.2322C122.763 88.7011 122.5 89.337 122.5 90C122.5 90.663 122.763 91.2989 123.232 91.7678C123.701 92.2366 124.337 92.5 125 92.5C125.663 92.5 126.299 92.2366 126.768 91.7678C127.237 91.2989 127.5 90.663 127.5 90C127.5 89.337 127.237 88.7011 126.768 88.2322C126.299 87.7634 125.663 87.5 125 87.5ZM135 87.5C134.337 87.5 133.701 87.7634 133.232 88.2322C132.763 88.7011 132.5 89.337 132.5 90C132.5 90.663 132.763 91.2989 133.232 91.7678C133.701 92.2366 134.337 92.5 135 92.5C135.663 92.5 136.299 92.2366 136.768 91.7678C137.237 91.2989 137.5 90.663 137.5 90C137.5 89.337 137.237 88.7011 136.768 88.2322C136.299 87.7634 135.663 87.5 135 87.5ZM145 87.5C144.337 87.5 143.701 87.7634 143.232 88.2322C142.763 88.7011 142.5 89.337 142.5 90C142.5 90.663 142.763 91.2989 143.232 91.7678C143.701 92.2366 144.337 92.5 145 92.5C145.663 92.5 146.299 92.2366 146.768 91.7678C147.237 91.2989 147.5 90.663 147.5 90C147.5 89.337 147.237 88.7011 146.768 88.2322C146.299 87.7634 145.663 87.5 145 87.5ZM155 87.5C154.337 87.5 153.701 87.7634 153.232 88.2322C152.763 88.7011 152.5 89.337 152.5 90C152.5 90.663 152.763 91.2989 153.232 91.7678C153.701 92.2366 154.337 92.5 155 92.5C155.663 92.5 156.299 92.2366 156.768 91.7678C157.237 91.2989 157.5 90.663 157.5 90C157.5 89.337 157.237 88.7011 156.768 88.2322C156.299 87.7634 155.663 87.5 155 87.5ZM165 87.5C164.337 87.5 163.701 87.7634 163.232 88.2322C162.763 88.7011 162.5 89.337 162.5 90C162.5 90.663 162.763 91.2989 163.232 91.7678C163.701 92.2366 164.337 92.5 165 92.5C165.663 92.5 166.299 92.2366 166.768 91.7678C167.237 91.2989 167.5 90.663 167.5 90C167.5 89.337 167.237 88.7011 166.768 88.2322C166.299 87.7634 165.663 87.5 165 87.5ZM35 97.5C34.337 97.5 33.7011 97.7634 33.2322 98.2322C32.7634 98.7011 32.5 99.337 32.5 100C32.5 100.663 32.7634 101.299 33.2322 101.768C33.7011 102.237 34.337 102.5 35 102.5C35.663 102.5 36.2989 102.237 36.7678 101.768C37.2366 101.299 37.5 100.663 37.5 100C37.5 99.337 37.2366 98.7011 36.7678 98.2322C36.2989 97.7634 35.663 97.5 35 97.5ZM95 97.5C94.337 97.5 93.7011 97.7634 93.2322 98.2322C92.7634 98.7011 92.5 99.337 92.5 100C92.5 100.663 92.7634 101.299 93.2322 101.768C93.7011 102.237 94.337 102.5 95 102.5C95.663 102.5 96.2989 102.237 96.7678 101.768C97.2366 101.299 97.5 100.663 97.5 100C97.5 99.337 97.2366 98.7011 96.7678 98.2322C96.2989 97.7634 95.663 97.5 95 97.5ZM115 97.5C114.337 97.5 113.701 97.7634 113.232 98.2322C112.763 98.7011 112.5 99.337 112.5 100C112.5 100.663 112.763 101.299 113.232 101.768C113.701 102.237 114.337 102.5 115 102.5C115.663 102.5 116.299 102.237 116.768 101.768C117.237 101.299 117.5 100.663 117.5 100C117.5 99.337 117.237 98.7011 116.768 98.2322C116.299 97.7634 115.663 97.5 115 97.5ZM165 97.5C164.337 97.5 163.701 97.7634 163.232 98.2322C162.763 98.7011 162.5 99.337 162.5 100C162.5 100.663 162.763 101.299 163.232 101.768C163.701 102.237 164.337 102.5 165 102.5C165.663 102.5 166.299 102.237 166.768 101.768C167.237 101.299 167.5 100.663 167.5 100C167.5 99.337 167.237 98.7011 166.768 98.2322C166.299 97.7634 165.663 97.5 165 97.5ZM35 107.5C34.337 107.5 33.7011 107.763 33.2322 108.232C32.7634 108.701 32.5 109.337 32.5 110C32.5 110.663 32.7634 111.299 33.2322 111.768C33.7011 112.237 34.337 112.5 35 112.5C35.663 112.5 36.2989 112.237 36.7678 111.768C37.2366 111.299 37.5 110.663 37.5 110C37.5 109.337 37.2366 108.701 36.7678 108.232C36.2989 107.763 35.663 107.5 35 107.5ZM45 107.5C44.337 107.5 43.7011 107.763 43.2322 108.232C42.7634 108.701 42.5 109.337 42.5 110C42.5 110.663 42.7634 111.299 43.2322 111.768C43.7011 112.237 44.337 112.5 45 112.5C45.663 112.5 46.2989 112.237 46.7678 111.768C47.2366 111.299 47.5 110.663 47.5 110C47.5 109.337 47.2366 108.701 46.7678 108.232C46.2989 107.763 45.663 107.5 45 107.5ZM55 107.5C54.337 107.5 53.7011 107.763 53.2322 108.232C52.7634 108.701 52.5 109.337 52.5 110C52.5 110.663 52.7634 111.299 53.2322 111.768C53.7011 112.237 54.337 112.5 55 112.5C55.663 112.5 56.2989 112.237 56.7678 111.768C57.2366 111.299 57.5 110.663 57.5 110C57.5 109.337 57.2366 108.701 56.7678 108.232C56.2989 107.763 55.663 107.5 55 107.5ZM65 107.5C64.337 107.5 63.7011 107.763 63.2322 108.232C62.7634 108.701 62.5 109.337 62.5 110C62.5 110.663 62.7634 111.299 63.2322 111.768C63.7011 112.237 64.337 112.5 65 112.5C65.663 112.5 66.2989 112.237 66.7678 111.768C67.2366 111.299 67.5 110.663 67.5 110C67.5 109.337 67.2366 108.701 66.7678 108.232C66.2989 107.763 65.663 107.5 65 107.5ZM75 107.5C74.337 107.5 73.7011 107.763 73.2322 108.232C72.7634 108.701 72.5 109.337 72.5 110C72.5 110.663 72.7634 111.299 73.2322 111.768C73.7011 112.237 74.337 112.5 75 112.5C75.663 112.5 76.2989 112.237 76.7678 111.768C77.2366 111.299 77.5 110.663 77.5 110C77.5 109.337 77.2366 108.701 76.7678 108.232C76.2989 107.763 75.663 107.5 75 107.5ZM85 107.5C84.337 107.5 83.7011 107.763 83.2322 108.232C82.7634 108.701 82.5 109.337 82.5 110C82.5 110.663 82.7634 111.299 83.2322 111.768C83.7011 112.237 84.337 112.5 85 112.5C85.663 112.5 86.2989 112.237 86.7678 111.768C87.2366 111.299 87.5 110.663 87.5 110C87.5 109.337 87.2366 108.701 86.7678 108.232C86.2989 107.763 85.663 107.5 85 107.5ZM95 107.5C94.337 107.5 93.7011 107.763 93.2322 108.232C92.7634 108.701 92.5 109.337 92.5 110C92.5 110.663 92.7634 111.299 93.2322 111.768C93.7011 112.237 94.337 112.5 95 112.5C95.663 112.5 96.2989 112.237 96.7678 111.768C97.2366 111.299 97.5 110.663 97.5 110C97.5 109.337 97.2366 108.701 96.7678 108.232C96.2989 107.763 95.663 107.5 95 107.5ZM115 107.5C114.337 107.5 113.701 107.763 113.232 108.232C112.763 108.701 112.5 109.337 112.5 110C112.5 110.663 112.763 111.299 113.232 111.768C113.701 112.237 114.337 112.5 115 112.5C115.663 112.5 116.299 112.237 116.768 111.768C117.237 111.299 117.5 110.663 117.5 110C117.5 109.337 117.237 108.701 116.768 108.232C116.299 107.763 115.663 107.5 115 107.5ZM165 107.5C164.337 107.5 163.701 107.763 163.232 108.232C162.763 108.701 162.5 109.337 162.5 110C162.5 110.663 162.763 111.299 163.232 111.768C163.701 112.237 164.337 112.5 165 112.5C165.663 112.5 166.299 112.237 166.768 111.768C167.237 111.299 167.5 110.663 167.5 110C167.5 109.337 167.237 108.701 166.768 108.232C166.299 107.763 165.663 107.5 165 107.5ZM115 117.5C114.337 117.5 113.701 117.763 113.232 118.232C112.763 118.701 112.5 119.337 112.5 120C112.5 120.663 112.763 121.299 113.232 121.768C113.701 122.237 114.337 122.5 115 122.5C115.663 122.5 116.299 122.237 116.768 121.768C117.237 121.299 117.5 120.663 117.5 120C117.5 119.337 117.237 118.701 116.768 118.232C116.299 117.763 115.663 117.5 115 117.5ZM165 117.5C164.337 117.5 163.701 117.763 163.232 118.232C162.763 118.701 162.5 119.337 162.5 120C162.5 120.663 162.763 121.299 163.232 121.768C163.701 122.237 164.337 122.5 165 122.5C165.663 122.5 166.299 122.237 166.768 121.768C167.237 121.299 167.5 120.663 167.5 120C167.5 119.337 167.237 118.701 166.768 118.232C166.299 117.763 165.663 117.5 165 117.5ZM35 127.5C34.337 127.5 33.7011 127.763 33.2322 128.232C32.7634 128.701 32.5 129.337 32.5 130C32.5 130.663 32.7634 131.299 33.2322 131.768C33.7011 132.237 34.337 132.5 35 132.5C35.663 132.5 36.2989 132.237 36.7678 131.768C37.2366 131.299 37.5 130.663 37.5 130C37.5 129.337 37.2366 128.701 36.7678 128.232C36.2989 127.763 35.663 127.5 35 127.5ZM45 127.5C44.337 127.5 43.7011 127.763 43.2322 128.232C42.7634 128.701 42.5 129.337 42.5 130C42.5 130.663 42.7634 131.299 43.2322 131.768C43.7011 132.237 44.337 132.5 45 132.5C45.663 132.5 46.2989 132.237 46.7678 131.768C47.2366 131.299 47.5 130.663 47.5 130C47.5 129.337 47.2366 128.701 46.7678 128.232C46.2989 127.763 45.663 127.5 45 127.5ZM55 127.5C54.337 127.5 53.7011 127.763 53.2322 128.232C52.7634 128.701 52.5 129.337 52.5 130C52.5 130.663 52.7634 131.299 53.2322 131.768C53.7011 132.237 54.337 132.5 55 132.5C55.663 132.5 56.2989 132.237 56.7678 131.768C57.2366 131.299 57.5 130.663 57.5 130C57.5 129.337 57.2366 128.701 56.7678 128.232C56.2989 127.763 55.663 127.5 55 127.5ZM65 127.5C64.337 127.5 63.7011 127.763 63.2322 128.232C62.7634 128.701 62.5 129.337 62.5 130C62.5 130.663 62.7634 131.299 63.2322 131.768C63.7011 132.237 64.337 132.5 65 132.5C65.663 132.5 66.2989 132.237 66.7678 131.768C67.2366 131.299 67.5 130.663 67.5 130C67.5 129.337 67.2366 128.701 66.7678 128.232C66.2989 127.763 65.663 127.5 65 127.5ZM75 127.5C74.337 127.5 73.7011 127.763 73.2322 128.232C72.7634 128.701 72.5 129.337 72.5 130C72.5 130.663 72.7634 131.299 73.2322 131.768C73.7011 132.237 74.337 132.5 75 132.5C75.663 132.5 76.2989 132.237 76.7678 131.768C77.2366 131.299 77.5 130.663 77.5 130C77.5 129.337 77.2366 128.701 76.7678 128.232C76.2989 127.763 75.663 127.5 75 127.5ZM85 127.5C84.337 127.5 83.7011 127.763 83.2322 128.232C82.7634 128.701 82.5 129.337 82.5 130C82.5 130.663 82.7634 131.299 83.2322 131.768C83.7011 132.237 84.337 132.5 85 132.5C85.663 132.5 86.2989 132.237 86.7678 131.768C87.2366 131.299 87.5 130.663 87.5 130C87.5 129.337 87.2366 128.701 86.7678 128.232C86.2989 127.763 85.663 127.5 85 127.5ZM95 127.5C94.337 127.5 93.7011 127.763 93.2322 128.232C92.7634 128.701 92.5 129.337 92.5 130C92.5 130.663 92.7634 131.299 93.2322 131.768C93.7011 132.237 94.337 132.5 95 132.5C95.663 132.5 96.2989 132.237 96.7678 131.768C97.2366 131.299 97.5 130.663 97.5 130C97.5 129.337 97.2366 128.701 96.7678 128.232C96.2989 127.763 95.663 127.5 95 127.5ZM115 127.5C114.337 127.5 113.701 127.763 113.232 128.232C112.763 128.701 112.5 129.337 112.5 130C112.5 130.663 112.763 131.299 113.232 131.768C113.701 132.237 114.337 132.5 115 132.5C115.663 132.5 116.299 132.237 116.768 131.768C117.237 131.299 117.5 130.663 117.5 130C117.5 129.337 117.237 128.701 116.768 128.232C116.299 127.763 115.663 127.5 115 127.5ZM165 127.5C164.337 127.5 163.701 127.763 163.232 128.232C162.763 128.701 162.5 129.337 162.5 130C162.5 130.663 162.763 131.299 163.232 131.768C163.701 132.237 164.337 132.5 165 132.5C165.663 132.5 166.299 132.237 166.768 131.768C167.237 131.299 167.5 130.663 167.5 130C167.5 129.337 167.237 128.701 166.768 128.232C166.299 127.763 165.663 127.5 165 127.5ZM35 137.5C34.337 137.5 33.7011 137.763 33.2322 138.232C32.7634 138.701 32.5 139.337 32.5 140C32.5 140.663 32.7634 141.299 33.2322 141.768C33.7011 142.237 34.337 142.5 35 142.5C35.663 142.5 36.2989 142.237 36.7678 141.768C37.2366 141.299 37.5 140.663 37.5 140C37.5 139.337 37.2366 138.701 36.7678 138.232C36.2989 137.763 35.663 137.5 35 137.5ZM95 137.5C94.337 137.5 93.7011 137.763 93.2322 138.232C92.7634 138.701 92.5 139.337 92.5 140C92.5 140.663 92.7634 141.299 93.2322 141.768C93.7011 142.237 94.337 142.5 95 142.5C95.663 142.5 96.2989 142.237 96.7678 141.768C97.2366 141.299 97.5 140.663 97.5 140C97.5 139.337 97.2366 138.701 96.7678 138.232C96.2989 137.763 95.663 137.5 95 137.5ZM115 137.5C114.337 137.5 113.701 137.763 113.232 138.232C112.763 138.701 112.5 139.337 112.5 140C112.5 140.663 112.763 141.299 113.232 141.768C113.701 142.237 114.337 142.5 115 142.5C115.663 142.5 116.299 142.237 116.768 141.768C117.237 141.299 117.5 140.663 117.5 140C117.5 139.337 117.237 138.701 116.768 138.232C116.299 137.763 115.663 137.5 115 137.5ZM165 137.5C164.337 137.5 163.701 137.763 163.232 138.232C162.763 138.701 162.5 139.337 162.5 140C162.5 140.663 162.763 141.299 163.232 141.768C163.701 142.237 164.337 142.5 165 142.5C165.663 142.5 166.299 142.237 166.768 141.768C167.237 141.299 167.5 140.663 167.5 140C167.5 139.337 167.237 138.701 166.768 138.232C166.299 137.763 165.663 137.5 165 137.5ZM35 147.5C34.337 147.5 33.7011 147.763 33.2322 148.232C32.7634 148.701 32.5 149.337 32.5 150C32.5 150.663 32.7634 151.299 33.2322 151.768C33.7011 152.237 34.337 152.5 35 152.5C35.663 152.5 36.2989 152.237 36.7678 151.768C37.2366 151.299 37.5 150.663 37.5 150C37.5 149.337 37.2366 148.701 36.7678 148.232C36.2989 147.763 35.663 147.5 35 147.5ZM45 147.5C44.337 147.5 43.7011 147.763 43.2322 148.232C42.7634 148.701 42.5 149.337 42.5 150C42.5 150.663 42.7634 151.299 43.2322 151.768C43.7011 152.237 44.337 152.5 45 152.5C45.663 152.5 46.2989 152.237 46.7678 151.768C47.2366 151.299 47.5 150.663 47.5 150C47.5 149.337 47.2366 148.701 46.7678 148.232C46.2989 147.763 45.663 147.5 45 147.5ZM55 147.5C54.337 147.5 53.7011 147.763 53.2322 148.232C52.7634 148.701 52.5 149.337 52.5 150C52.5 150.663 52.7634 151.299 53.2322 151.768C53.7011 152.237 54.337 152.5 55 152.5C55.663 152.5 56.2989 152.237 56.7678 151.768C57.2366 151.299 57.5 150.663 57.5 150C57.5 149.337 57.2366 148.701 56.7678 148.232C56.2989 147.763 55.663 147.5 55 147.5ZM65 147.5C64.337 147.5 63.7011 147.763 63.2322 148.232C62.7634 148.701 62.5 149.337 62.5 150C62.5 150.663 62.7634 151.299 63.2322 151.768C63.7011 152.237 64.337 152.5 65 152.5C65.663 152.5 66.2989 152.237 66.7678 151.768C67.2366 151.299 67.5 150.663 67.5 150C67.5 149.337 67.2366 148.701 66.7678 148.232C66.2989 147.763 65.663 147.5 65 147.5ZM75 147.5C74.337 147.5 73.7011 147.763 73.2322 148.232C72.7634 148.701 72.5 149.337 72.5 150C72.5 150.663 72.7634 151.299 73.2322 151.768C73.7011 152.237 74.337 152.5 75 152.5C75.663 152.5 76.2989 152.237 76.7678 151.768C77.2366 151.299 77.5 150.663 77.5 150C77.5 149.337 77.2366 148.701 76.7678 148.232C76.2989 147.763 75.663 147.5 75 147.5ZM85 147.5C84.337 147.5 83.7011 147.763 83.2322 148.232C82.7634 148.701 82.5 149.337 82.5 150C82.5 150.663 82.7634 151.299 83.2322 151.768C83.7011 152.237 84.337 152.5 85 152.5C85.663 152.5 86.2989 152.237 86.7678 151.768C87.2366 151.299 87.5 150.663 87.5 150C87.5 149.337 87.2366 148.701 86.7678 148.232C86.2989 147.763 85.663 147.5 85 147.5ZM95 147.5C94.337 147.5 93.7011 147.763 93.2322 148.232C92.7634 148.701 92.5 149.337 92.5 150C92.5 150.663 92.7634 151.299 93.2322 151.768C93.7011 152.237 94.337 152.5 95 152.5C95.663 152.5 96.2989 152.237 96.7678 151.768C97.2366 151.299 97.5 150.663 97.5 150C97.5 149.337 97.2366 148.701 96.7678 148.232C96.2989 147.763 95.663 147.5 95 147.5ZM115 147.5C114.337 147.5 113.701 147.763 113.232 148.232C112.763 148.701 112.5 149.337 112.5 150C112.5 150.663 112.763 151.299 113.232 151.768C113.701 152.237 114.337 152.5 115 152.5C115.663 152.5 116.299 152.237 116.768 151.768C117.237 151.299 117.5 150.663 117.5 150C117.5 149.337 117.237 148.701 116.768 148.232C116.299 147.763 115.663 147.5 115 147.5ZM125 147.5C124.337 147.5 123.701 147.763 123.232 148.232C122.763 148.701 122.5 149.337 122.5 150C122.5 150.663 122.763 151.299 123.232 151.768C123.701 152.237 124.337 152.5 125 152.5C125.663 152.5 126.299 152.237 126.768 151.768C127.237 151.299 127.5 150.663 127.5 150C127.5 149.337 127.237 148.701 126.768 148.232C126.299 147.763 125.663 147.5 125 147.5ZM135 147.5C134.337 147.5 133.701 147.763 133.232 148.232C132.763 148.701 132.5 149.337 132.5 150C132.5 150.663 132.763 151.299 133.232 151.768C133.701 152.237 134.337 152.5 135 152.5C135.663 152.5 136.299 152.237 136.768 151.768C137.237 151.299 137.5 150.663 137.5 150C137.5 149.337 137.237 148.701 136.768 148.232C136.299 147.763 135.663 147.5 135 147.5ZM145 147.5C144.337 147.5 143.701 147.763 143.232 148.232C142.763 148.701 142.5 149.337 142.5 150C142.5 150.663 142.763 151.299 143.232 151.768C143.701 152.237 144.337 152.5 145 152.5C145.663 152.5 146.299 152.237 146.768 151.768C147.237 151.299 147.5 150.663 147.5 150C147.5 149.337 147.237 148.701 146.768 148.232C146.299 147.763 145.663 147.5 145 147.5ZM155 147.5C154.337 147.5 153.701 147.763 153.232 148.232C152.763 148.701 152.5 149.337 152.5 150C152.5 150.663 152.763 151.299 153.232 151.768C153.701 152.237 154.337 152.5 155 152.5C155.663 152.5 156.299 152.237 156.768 151.768C157.237 151.299 157.5 150.663 157.5 150C157.5 149.337 157.237 148.701 156.768 148.232C156.299 147.763 155.663 147.5 155 147.5ZM165 147.5C164.337 147.5 163.701 147.763 163.232 148.232C162.763 148.701 162.5 149.337 162.5 150C162.5 150.663 162.763 151.299 163.232 151.768C163.701 152.237 164.337 152.5 165 152.5C165.663 152.5 166.299 152.237 166.768 151.768C167.237 151.299 167.5 150.663 167.5 150C167.5 149.337 167.237 148.701 166.768 148.232C166.299 147.763 165.663 147.5 165 147.5Z" fill="#2C2C2C"/>
</svg>
